<?xml version="1.0" encoding="UTF-8"?>
<svg version="1.1" xmlns="http://www.w3.org/2000/svg" width="849" height="294">
<path d="M0 0 C0.67417969 0.50144531 1.34835938 1.00289062 2.04296875 1.51953125 C19.94803992 15.73705916 30.72863967 39.47051012 33.68359375 61.69921875 C36.04889058 86.37422891 29.35379543 110.48674227 13.7734375 129.8671875 C13.18820313 130.57101563 12.60296875 131.27484375 12 132 C10.86304688 133.44246094 10.86304688 133.44246094 9.703125 134.9140625 C6.92997589 138.22994309 3.78651205 140.86305968 0.375 143.5 C-0.23601562 143.9748584 -0.84703125 144.4497168 -1.4765625 144.93896484 C-8.42832316 150.23425129 -15.19198141 154.84778827 -24 156 C-24.86604534 154.23494565 -25.71748642 152.46271926 -26.5625 150.6875 C-27.03816406 149.70136719 -27.51382813 148.71523437 -28.00390625 147.69921875 C-29 145 -29 145 -28 142 C-25.515625 140.5625 -25.515625 140.5625 -22.25 139 C-4.15225542 129.79609062 7.86697498 114.32932806 14.8125 95.4375 C20.86443449 75.22702741 18.8613413 53.58648458 9 35 C-2.43044828 15.60633943 -19.05297919 3.71363987 -40.67578125 -2.23828125 C-60.10702804 -6.69079961 -80.58705331 -3.34749829 -97.8125 6.62890625 C-100.31618868 8.3149841 -102.66130107 10.09221712 -105 12 C-105.84175781 12.67933594 -106.68351562 13.35867187 -107.55078125 14.05859375 C-120.92316007 25.44236388 -129.74915346 40.75750995 -133 58 C-133.226875 59.11375 -133.45375 60.2275 -133.6875 61.375 C-135.51968799 82.62838073 -131.29497567 102.59828456 -118.02734375 119.609375 C-100.77171034 139.95705833 -80.13002936 146.0966634 -54 149 C-54.33 113.36 -54.66 77.72 -55 41 C-62.20777945 52.06893081 -62.20777945 52.06893081 -69.19921875 63.2734375 C-69.83633789 64.32144531 -69.83633789 64.32144531 -70.48632812 65.390625 C-71.31453242 66.75884543 -72.12612031 68.13721539 -72.92382812 69.5234375 C-75.58322293 73.82408209 -77.87830672 76.11459129 -82.77661133 77.58691406 C-86.85923632 78.34542965 -90.86248352 78.31143483 -95 78.1875 C-95.87011719 78.17396484 -96.74023438 78.16042969 -97.63671875 78.14648438 C-99.75808627 78.11151678 -101.87912974 78.0577253 -104 78 C-104 73.34861301 -102.50114556 71.19021476 -100 67.5 C-99.63777344 66.95085937 -99.27554688 66.40171875 -98.90234375 65.8359375 C-97.03714761 63.01601384 -95.14717843 60.21446989 -93.23413086 57.42675781 C-89.82670504 52.41191128 -86.61374307 47.39969748 -83.66397095 42.10571289 C-82.09506557 39.3212804 -80.45126301 36.58485351 -78.79760742 33.85009766 C-77.97242157 32.44700441 -77.17919855 31.02463166 -76.41870117 29.58544922 C-76.04011963 28.87533691 -75.66153809 28.16522461 -75.27148438 27.43359375 C-74.9481311 26.80348389 -74.62477783 26.17337402 -74.29162598 25.52416992 C-68.55622191 17.44989384 -68.55622191 17.44989384 -63.10875511 16.49114227 C-59.74374021 16.37453344 -56.44101802 16.44476073 -53.07788086 16.60253906 C-51.91596977 16.63123077 -50.75405869 16.65992249 -49.55693817 16.68948364 C-46.70245772 16.76411058 -43.85232836 16.86842571 -41 17 C-40.97667223 36.01876264 -40.95902142 55.03752239 -40.94818783 74.05629635 C-40.94302461 82.88641271 -40.93598143 91.71652019 -40.92456055 100.54663086 C-40.91461449 108.24012065 -40.90814676 115.93360401 -40.90591151 123.62710005 C-40.90460426 127.70329652 -40.90151757 131.77947461 -40.89426994 135.85566521 C-40.88751096 139.68787755 -40.88538279 143.52006384 -40.88689232 147.35228157 C-40.88661594 148.76285061 -40.88461009 150.17342047 -40.88079453 151.58398438 C-40.87585925 153.50165689 -40.87760198 155.41934321 -40.87974548 157.33702087 C-40.87882369 158.41275329 -40.8779019 159.4884857 -40.87695217 160.59681606 C-41 163 -41 163 -42 164 C-67.77918442 165.89016067 -92.32201988 162.43548662 -113 146 C-113.95261719 145.28328125 -114.90523437 144.5665625 -115.88671875 143.828125 C-132.4472525 130.85111264 -142.92993646 113.36030778 -148 93 C-148.22429687 92.17113281 -148.44859375 91.34226562 -148.6796875 90.48828125 C-153.91171191 67.66088708 -148.74253951 43.15563575 -136.75 23.375 C-122.0837159 1.50422547 -100.90662875 -13.97524602 -74.890625 -19.26953125 C-47.52228419 -23.93123411 -21.77401332 -16.66158586 0 0 Z " fill="#D00A50" transform="translate(202,66)"/>
<path d="M0 0 C15 0 15 0 19.3125 3.625 C20.58883147 5.3833794 21.81429786 7.17927746 23 9 C24.14729011 10.59501308 25.29487508 12.1898262 26.44848633 13.78027344 C27.71144517 15.53323542 28.95169276 17.3008536 30.19140625 19.0703125 C35.23936345 26.20917219 40.66502962 33.0758895 46 40 C46.33 26.8 46.66 13.6 47 0 C52.61 0 58.22 0 64 0 C64 23.76 64 47.52 64 72 C50 73 50 73 46.0859375 69.671875 C45.02210235 68.13840692 43.99453521 66.57929392 43 65 C41.79383844 63.41423094 40.57737293 61.83625481 39.3515625 60.265625 C38.10611128 58.59617987 36.86399848 56.9242397 35.625 55.25 C34.97450684 54.37690186 34.32401367 53.50380371 33.65380859 52.60424805 C32.36166059 50.86977921 31.07076889 49.13437361 29.78125 47.39794922 C27.40352636 44.19701698 25.01584694 41.00363462 22.625 37.8125 C21.93664062 36.89082031 21.24828125 35.96914062 20.5390625 35.01953125 C19.15637263 33.11177183 19.15637263 33.11177183 18 32 C17.67 45.2 17.34 58.4 17 72 C11.39 72 5.78 72 0 72 C0 48.24 0 24.48 0 0 Z " fill="#000000" transform="translate(333,104)"/>
<path d="M0 0 C6.67341772 5.45728187 11.65592382 13.629141 12.85107422 22.25268555 C12.98710753 24.49823171 13.01888319 26.71157449 12.98828125 28.9609375 C12.97998291 29.75105225 12.97168457 30.54116699 12.96313477 31.35522461 C12.66245249 41.76567964 8.82089309 49.61546825 1.55078125 57.0859375 C-7.31459835 64.38871422 -17.90353037 68.13202336 -29.44921875 67.0859375 C-40.58130658 65.27159169 -49.77231633 61.09546854 -56.98046875 52.23828125 C-63.87892371 42.12910922 -64.9514804 30.66303951 -62.87109375 18.78515625 C-60.22277163 9.503991 -54.45228301 2.56026223 -46.51171875 -2.8515625 C-31.26483629 -11.29875475 -14.20146668 -9.52120962 0 0 Z M-41.26171875 15.0859375 C-46.19656979 21.85373321 -46.3505027 27.78855022 -45.44921875 36.0859375 C-43.39374934 41.77597086 -39.37246346 45.7381311 -34.44921875 49.0859375 C-28.93494013 51.37488334 -24.18329237 51.38667254 -18.44921875 50.0859375 C-13.39985556 47.85482353 -8.78239156 43.74776389 -6.296875 38.78515625 C-4.30183391 32.43228348 -4.28084676 24.69643873 -7.07421875 18.5859375 C-9.9662916 13.72479377 -14.20794819 10.23137679 -19.44921875 8.0859375 C-28.59631645 6.97641648 -35.03638821 7.99697729 -41.26171875 15.0859375 Z " fill="#000000" transform="translate(307.44921875,110.9140625)"/>
<path d="M0 0 C0.95708359 0.00222061 1.91416718 0.00444122 2.9002533 0.00672913 C3.98129837 0.00680466 5.06234344 0.00688019 6.17614746 0.00695801 C7.94018166 0.01469994 7.94018166 0.01469994 9.73985291 0.02259827 C10.93702438 0.02401321 12.13419586 0.02542816 13.36764526 0.02688599 C17.20918732 0.03250472 21.05067208 0.04506041 24.89219666 0.05775452 C27.48920102 0.0627671 30.0862063 0.06733043 32.68321228 0.07142639 C39.06539597 0.08248025 45.44753659 0.09975744 51.82969666 0.12025452 C51.82969666 5.07025452 51.82969666 10.02025452 51.82969666 15.12025452 C39.61969666 15.45025452 27.40969666 15.78025452 14.82969666 16.12025452 C14.49969666 20.08025452 14.16969666 24.04025452 13.82969666 28.12025452 C15.32134338 28.11239929 15.32134338 28.11239929 16.84312439 28.10438538 C20.52003587 28.08633411 24.1969434 28.07482206 27.87388611 28.06532288 C29.4676428 28.06028294 31.06139485 28.05345102 32.65513611 28.04481506 C34.94119918 28.03273453 37.22720133 28.02702297 39.51329041 28.02259827 C40.22996384 28.01743698 40.94663727 28.0122757 41.68502808 28.00695801 C43.40033338 28.00676189 45.11550932 28.05833444 46.82969666 28.12025452 C47.82969666 29.12025452 47.82969666 29.12025452 47.96250916 32.24525452 C47.95993103 33.52400452 47.95735291 34.80275452 47.95469666 36.12025452 C47.95856384 38.03837952 47.95856384 38.03837952 47.96250916 39.99525452 C47.82969666 43.12025452 47.82969666 43.12025452 46.82969666 44.12025452 C44.38139239 44.20869245 41.96149067 44.23554203 39.51329041 44.21791077 C38.78223587 44.21649582 38.05118134 44.21508087 37.29797363 44.21362305 C34.95434033 44.2080086 32.61080126 44.19545373 30.26719666 44.18275452 C28.68191157 44.17774137 27.096625 44.17317815 25.51133728 44.16908264 C21.61742056 44.15803448 17.7235746 44.14076023 13.82969666 44.12025452 C13.82969666 48.41025452 13.82969666 52.70025452 13.82969666 57.12025452 C26.69969666 57.12025452 39.56969666 57.12025452 52.82969666 57.12025452 C52.82969666 62.07025452 52.82969666 67.02025452 52.82969666 72.12025452 C49.76669534 73.14125495 47.82257732 73.2103636 44.62388611 73.14198303 C43.03257622 73.11183861 43.03257622 73.11183861 41.40911865 73.08108521 C40.26529221 73.05405014 39.12146576 73.02701508 37.94297791 72.99916077 C36.77083237 72.97554977 35.59868683 72.95193878 34.39102173 72.9276123 C30.64129125 72.85094063 26.89176545 72.76693096 23.14219666 72.68275452 C20.60249318 72.62953737 18.06277967 72.57679695 15.52305603 72.52455139 C9.29180914 72.39532068 3.06071471 72.26006233 -3.17030334 72.12025452 C-3.19342858 62.880279 -3.21121935 53.64031338 -3.22211552 44.40031528 C-3.22734395 40.11025537 -3.23444087 35.82021518 -3.2457428 31.53016663 C-3.2565731 27.39346051 -3.26258048 23.25677344 -3.26518059 19.12005424 C-3.26703458 17.53833148 -3.2706547 15.9566098 -3.2760334 14.3748951 C-3.28324574 12.16702614 -3.28429421 9.95923679 -3.28382874 7.75135803 C-3.28604935 6.49227127 -3.28826996 5.23318451 -3.29055786 3.9359436 C-3.12986537 0.17342297 -3.12986537 0.17342297 0 0 Z " fill="#000000" transform="translate(415.17030334472656,103.87974548339844)"/>
<path d="M0 0 C17.16 0 34.32 0 52 0 C52 1.98 52 3.96 52 6 C51 7 51 7 49.20933533 7.12025452 C48.42990067 7.11803391 47.650466 7.11581329 46.84741211 7.11352539 C45.96657455 7.11344986 45.085737 7.11337433 44.1782074 7.11329651 C43.22092239 7.10813522 42.26363739 7.10297394 41.27734375 7.09765625 C40.30213272 7.0962413 39.32692169 7.09482635 38.32215881 7.09336853 C35.19390857 7.08775133 32.06572877 7.07519593 28.9375 7.0625 C26.82226666 7.05748722 24.70703219 7.05292393 22.59179688 7.04882812 C17.39448199 7.03862531 12.19732025 7.01905331 7 7 C7 15.58 7 24.16 7 33 C20.2 33 33.4 33 47 33 C47 34.98 47 36.96 47 39 C33.8 39 20.6 39 7 39 C7 47.91 7 56.82 7 66 C21.85 66 36.7 66 52 66 C52.33 67.65 52.66 69.3 53 71 C49.7657977 73.15613486 48.90413631 73.24908962 45.17724609 73.24291992 C44.19968353 73.24599655 43.22212097 73.24907318 42.2149353 73.25224304 C41.16174103 73.24505753 40.10854675 73.23787201 39.0234375 73.23046875 C37.94244781 73.23001053 36.86145813 73.22955231 35.74771118 73.2290802 C33.46298118 73.22605859 31.17825323 73.21817502 28.89355469 73.20581055 C25.38208789 73.18753689 21.8708844 73.18530097 18.359375 73.18554688 C16.14322687 73.18063242 13.92708054 73.17480442 11.7109375 73.16796875 C10.65369476 73.16685593 9.59645203 73.1657431 8.50717163 73.16459656 C7.05028427 73.15502678 7.05028427 73.15502678 5.56396484 73.14526367 C4.70475433 73.14145187 3.84554382 73.13764008 2.96029663 73.13371277 C1 73 1 73 0 72 C-0.25183331 68.93136449 -0.43230725 65.8872991 -0.5625 62.8125 C-0.6251001 61.36351318 -0.6251001 61.36351318 -0.68896484 59.88525391 C-1.00983632 51.54914384 -1.1074383 43.21680544 -1.125 34.875 C-1.12959229 33.6991333 -1.13418457 32.5232666 -1.13891602 31.31176758 C-1.1209822 20.82335731 -0.52574271 10.51485412 0 0 Z " fill="#000000" transform="translate(757,104)"/>
<path d="M0 0 C1.4540625 0.0309375 1.4540625 0.0309375 2.9375 0.0625 C8.38889043 10.84812664 13.67979457 21.70137709 18.84692383 32.62597656 C19.99975717 35.06198689 21.15695699 37.49588992 22.31445312 39.9296875 C25.96390517 47.62209436 29.5567184 55.33606941 32.99609375 63.125 C33.4452993 64.13469849 33.4452993 64.13469849 33.90357971 65.16479492 C35.9375 69.82174483 35.9375 69.82174483 35.9375 72.0625 C33.9575 72.3925 31.9775 72.7225 29.9375 73.0625 C20.9375 59.52561475 20.9375 59.52561475 20.9375 54.0625 C7.0775 53.7325 -6.7825 53.4025 -21.0625 53.0625 C-22.0525 56.0325 -23.0425 59.0025 -24.0625 62.0625 C-24.8465491 63.91744543 -25.67103773 65.75671746 -26.5625 67.5625 C-26.9646875 68.3978125 -27.366875 69.233125 -27.78125 70.09375 C-29.0625 72.0625 -29.0625 72.0625 -32.0625 73.0625 C-34.25 72.625 -34.25 72.625 -36.0625 72.0625 C-33.75249117 64.30258145 -30.41620604 57.13397139 -26.93890381 49.84820557 C-25.24083516 46.29030309 -23.55865219 42.72489747 -21.875 39.16015625 C-21.54345917 38.45924866 -21.21191833 37.75834106 -20.87033081 37.03619385 C-18.15455688 31.28487445 -15.52288014 25.4986338 -12.9375 19.6875 C-4.1984733 0.08568313 -4.1984733 0.08568313 0 0 Z M-1.0625 9.0625 C-5.52329549 18.36846791 -9.96341527 27.6805177 -14.125 37.125 C-14.42349854 37.79660156 -14.72199707 38.46820313 -15.02954102 39.16015625 C-16.56013884 42.48709639 -16.56013884 42.48709639 -17.0625 46.0625 C-5.8425 46.0625 5.3775 46.0625 16.9375 46.0625 C13.05414666 36.71154699 13.05414666 36.71154699 9.04296875 27.421875 C8.32270508 25.78798828 8.32270508 25.78798828 7.58789062 24.12109375 C6.86375977 22.48333984 6.86375977 22.48333984 6.125 20.8125 C5.62291016 19.67425781 5.12082031 18.53601563 4.60351562 17.36328125 C3.38259942 14.59587118 2.16058074 11.82895394 0.9375 9.0625 C0.2775 9.0625 -0.3825 9.0625 -1.0625 9.0625 Z " fill="#010101" transform="translate(637.0625,103.9375)"/>
<path d="M0 0 C4.10762763 -0.04992909 8.21513448 -0.08596646 12.32299805 -0.10986328 C13.71658409 -0.1198393 15.11014966 -0.13342501 16.50366211 -0.15087891 C27.78801417 -0.28854233 37.77993434 -0.2547909 47 7 C52.18133597 12.45403786 53.54607103 17.71196096 53.3671875 25.0859375 C52.61940296 31.02048292 50.37418799 35.85657421 45.91015625 39.88671875 C37.21995615 46.02185147 29.41509992 46.27683903 19.0625 46.125 C15.081875 46.08375 11.10125 46.0425 7 46 C7 54.58 7 63.16 7 72 C4.03 72.495 4.03 72.495 1 73 C-1.2320593 68.54251621 -1.27483104 64.36869382 -1.23046875 59.4921875 C-1.23037308 58.66119034 -1.2302774 57.83019318 -1.23017883 56.97401428 C-1.22646169 54.27419526 -1.20754605 51.57474324 -1.1875 48.875 C-1.18064864 47.02286907 -1.17413975 45.17073684 -1.16796875 43.31860352 C-1.09915475 28.86505324 -0.72500295 14.4364284 0 0 Z M7 7 C7 17.89 7 28.78 7 40 C11.888125 40.0928125 11.888125 40.0928125 16.875 40.1875 C17.88030762 40.21481201 18.88561523 40.24212402 19.92138672 40.27026367 C27.55536473 40.33936626 35.27889833 39.41197402 41.5 34.625 C45.18387206 30.75693434 46.09116025 27.85829539 46.375 22.625 C46.23174488 17.84187083 45.13347471 14.61874251 42 11 C34.85679233 6.24636537 28.38308461 6.52162764 20 6.75 C15.71 6.8325 11.42 6.915 7 7 Z " fill="#010101" transform="translate(547,104)"/>
<path d="M0 0 C-0.33 1.32 -0.66 2.64 -1 4 C-3 4.8125 -3 4.8125 -6 5 C-8.1499085 3.89737366 -10.06492381 2.62328173 -12.03515625 1.2265625 C-16.1047692 -1.31391159 -20.15328751 -1.18907468 -24.875 -1.25 C-26.06867188 -1.27578125 -27.26234375 -1.3015625 -28.4921875 -1.328125 C-32.35936446 -0.96638462 -34.71042786 -0.03137082 -38 2 C-40.46106473 5.41373495 -41.2450399 7.99627683 -40.9375 12.125 C-39.91848424 16.33693181 -39.26890058 17.33849648 -36 20 C-33.19743845 21.19690883 -33.19743845 21.19690883 -30.0625 22 C-28.91523438 22.33128906 -27.76796875 22.66257813 -26.5859375 23.00390625 C-24.81089844 23.49697266 -24.81089844 23.49697266 -23 24 C-3.73068496 29.37191966 -3.73068496 29.37191966 0.5 36.75 C2.68213003 41.93255882 2.90327185 46.72788278 1.41015625 52.13671875 C-1.04934339 58.08712111 -5.33274734 61.20305492 -11 64 C-19.39992146 67.29022195 -29.64900669 66.57327731 -37.91015625 63.09765625 C-42.46092222 60.70744085 -46.7352498 57.86145923 -51 55 C-50.75 53.125 -50.75 53.125 -50 51 C-47.9375 49.75 -47.9375 49.75 -46 49 C-45.03900391 49.72316406 -45.03900391 49.72316406 -44.05859375 50.4609375 C-35.19180266 56.93594143 -27.99035665 58.98421104 -17 58 C-13.04449278 56.98505439 -9.50046646 55.33395527 -7 52 C-5.64735224 47.94205671 -5.25119973 43.97992961 -6.79101562 39.90844727 C-10.43866329 34.15043801 -19.30888745 32.96866762 -25.5 31.5625 C-26.30308594 31.38396484 -27.10617187 31.20542969 -27.93359375 31.02148438 C-36.48463264 28.96341424 -42.90939077 25.25026163 -48 18 C-48.8125 16.0625 -48.8125 16.0625 -49 14 C-49.1546875 12.39125 -49.1546875 12.39125 -49.3125 10.75 C-48.85073876 5.20886511 -47.19314001 1.19799209 -43.234375 -2.76953125 C-29.96042358 -13.50888958 -12.71116724 -9.69814982 0 0 Z " fill="#010101" transform="translate(529,112)"/>
<path d="M0 0 C2.03125 1.5 2.03125 1.5 4.03125 4.5 C2.71125 5.82 1.39125 7.14 0.03125 8.5 C-2.02938401 7.50202478 -4.01842412 6.46984762 -5.9765625 5.28125 C-14.56167356 0.08583224 -23.08686201 -1.64343982 -32.96875 0.5 C-39.6698607 2.49192951 -44.18122622 5.59931508 -47.96875 11.5 C-53.07509526 21.04166438 -54.24626903 29.51377588 -51.40625 40 C-48.72510889 48.0714492 -44.77218812 53.13249548 -37.46875 57.5 C-30.22000106 60.76470372 -21.84431375 60.80199714 -14.21875 58.765625 C-10.51846172 57.24050618 -7.6429356 55.33411744 -4.65625 52.6875 C-1.96875 50.5 -1.96875 50.5 0.28125 50.4375 C2.4937799 51.78082172 2.96679348 53.18900887 4.03125 55.5 C-6.62059599 63.74343229 -16.18300023 68.70069433 -29.96875 67.5 C-39.38367905 65.75320499 -47.67432071 61.11012846 -53.62109375 53.5234375 C-60.20943641 43.63137519 -62.24543162 33.01088538 -60.34375 21.25 C-58.05706932 11.8715191 -53.48985532 3.56871633 -45.28125 -1.625 C-29.8133568 -10.37360431 -15.01157497 -9.12095694 0 0 Z " fill="#010101" transform="translate(739.96875,110.5)"/>
<path d="M0 0 C0.87408617 6.74761616 1.13806408 13.31989846 1.11352539 20.11938477 C1.11367142 21.19359177 1.11381744 22.26779877 1.1139679 23.3745575 C1.11327569 26.89686153 1.10551587 30.41911154 1.09765625 33.94140625 C1.09578961 36.39477001 1.09436687 38.84813415 1.09336853 41.30149841 C1.08956272 47.73761028 1.07974906 54.17369935 1.06866455 60.60980225 C1.05840871 67.18582857 1.05386199 73.7618586 1.04882812 80.33789062 C1.03812497 93.22527011 1.02126598 106.11263384 1 119 C0.67 119 0.34 119 0 119 C-0.495 66.035 -0.495 66.035 -1 12 C-8.20777945 23.06893081 -8.20777945 23.06893081 -15.19921875 34.2734375 C-15.62396484 34.97210938 -16.04871094 35.67078125 -16.48632812 36.390625 C-17.31453242 37.75884543 -18.12612031 39.13721539 -18.92382812 40.5234375 C-21.58322293 44.82408209 -23.87830672 47.11459129 -28.77661133 48.58691406 C-32.85923632 49.34542965 -36.86248352 49.31143483 -41 49.1875 C-41.87011719 49.17396484 -42.74023438 49.16042969 -43.63671875 49.14648438 C-45.75808627 49.11151678 -47.87912974 49.0577253 -50 49 C-50 44.28093812 -48.71245796 42.72962969 -46 39 C-45.3125 40.8125 -45.3125 40.8125 -45 43 C-46.375 44.625 -46.375 44.625 -48 46 C-48.33 46.66 -48.66 47.32 -49 48 C-46.24452835 48.0210571 -43.50408223 47.99347728 -40.75 47.9375 C-39.58404297 47.95393555 -39.58404297 47.95393555 -38.39453125 47.97070312 C-36.0656986 47.90103719 -34.20329717 47.76891716 -32 47 C-30.01220954 44.76205003 -29.18544509 42.80746538 -28 40 C-27.34 40 -26.68 40 -26 40 C-25.89945313 39.43410156 -25.79890625 38.86820313 -25.6953125 38.28515625 C-24.85928346 35.53753271 -23.57484874 33.75097127 -21.875 31.4375 C-19.23807972 27.77180179 -16.72416099 24.06802916 -14.3125 20.25 C-13.73757812 19.33992188 -13.16265625 18.42984375 -12.5703125 17.4921875 C-12.05210937 16.66976562 -11.53390625 15.84734375 -11 15 C-7.30945559 9.15472779 -7.30945559 9.15472779 -5 8 C-4.67 6.845 -4.34 5.69 -4 4.5 C-3.67 3.345 -3.34 2.19 -3 1 C-1 0 -1 0 0 0 Z " fill="#9E1C4A" transform="translate(148,95)"/>
<path d="M0 0 C1.5631897 0.00785522 1.5631897 0.00785522 3.15795898 0.01586914 C4.28266602 0.0190918 5.40737305 0.02231445 6.56616211 0.02563477 C7.75016602 0.03401367 8.93416992 0.04239258 10.15405273 0.05102539 C11.34192383 0.05553711 12.52979492 0.06004883 13.75366211 0.06469727 C16.69967499 0.07652864 19.64558954 0.09301252 22.59155273 0.11352539 C22.61488051 19.13228803 22.63253131 38.15104778 22.64336491 57.16982174 C22.64852812 65.9999381 22.65557131 74.83004558 22.66699219 83.66015625 C22.67693824 91.35364604 22.68340597 99.0471294 22.68564123 106.74062544 C22.68694847 110.81682191 22.69003516 114.893 22.69728279 118.9691906 C22.70404178 122.80140294 22.70616995 126.63358923 22.70466042 130.46580696 C22.7049368 131.876376 22.70694265 133.28694586 22.71075821 134.69750977 C22.71569348 136.61518228 22.71395075 138.5328686 22.71180725 140.45054626 C22.71272904 141.52627868 22.71365084 142.60201109 22.71460056 143.71034145 C22.59155273 146.11352539 22.59155273 146.11352539 21.59155273 147.11352539 C19.66487766 147.20100746 17.73503412 147.22049873 15.80639648 147.21118164 C14.63657227 147.20795898 13.46674805 147.20473633 12.26147461 147.20141602 C11.02977539 147.19303711 9.79807617 147.1846582 8.52905273 147.17602539 C6.67570313 147.16925781 6.67570313 147.16925781 4.78491211 147.16235352 C1.72041157 147.15052147 -1.34399448 147.13403712 -4.40844727 147.11352539 C-4.40844727 146.78352539 -4.40844727 146.45352539 -4.40844727 146.11352539 C3.84155273 146.11352539 12.09155273 146.11352539 20.59155273 146.11352539 C20.59155273 98.59352539 20.59155273 51.07352539 20.59155273 2.11352539 C1.62545345 1.35697477 1.62545345 1.35697477 -5.40844727 6.11352539 C-3.1135378 0.14676078 -3.1135378 0.14676078 0 0 Z " fill="#AD1A4C" transform="translate(138.408447265625,82.886474609375)"/>
<path d="M0 0 C1.32 0.33 2.64 0.66 4 1 C1.60795312 4.85652865 -0.78931409 8.70978645 -3.1875 12.5625 C-3.86103516 13.64853516 -4.53457031 14.73457031 -5.22851562 15.85351562 C-8.66283771 21.36518376 -12.14032466 26.77632289 -16 32 C-17.02866653 28.79584277 -17.05483179 28.13982105 -15.75 24.8125 C-14 22 -14 22 -11 21 C-11 20.01 -11 19.02 -11 18 C-10.1875 15.375 -10.1875 15.375 -9 13 C-8.01 12.67 -7.02 12.34 -6 12 C-5.67 11.34 -5.34 10.68 -5 10 C-4.34 10 -3.68 10 -3 10 C-3.2475 9.46375 -3.495 8.9275 -3.75 8.375 C-4.13553144 4.71245136 -2.13181966 2.84242621 0 0 Z " fill="#7A1533" transform="translate(142,107)"/>
<path d="M0 0 C0.33 4.29 0.66 8.58 1 13 C0.34 12.67 -0.32 12.34 -1 12 C-3.51047485 11.93453102 -3.51047485 11.93453102 -6 13 C-7.05226728 14.97300116 -8.04788888 16.97676387 -9 19 C-11.26152356 21.04088712 -13.28149023 22.64074512 -16 24 C-14.34645003 20.41730839 -12.20101977 17.26818086 -10 14 C-9.46375 13.071875 -8.9275 12.14375 -8.375 11.1875 C-7 9 -7 9 -5 8 C-4.67 6.845 -4.34 5.69 -4 4.5 C-3.67 3.345 -3.34 2.19 -3 1 C-1 0 -1 0 0 0 Z " fill="#AF1140" transform="translate(148,95)"/>
<path d="M0 0 C0.33 0 0.66 0 1 0 C4.28045609 17.63245146 3.12296396 33.91602887 -2 51 C-3.53166168 46.91556885 -2.63081652 43.20544343 -2 39 C-1.34 39 -0.68 39 0 39 C0 26.13 0 13.26 0 0 Z " fill="#A71345" transform="translate(233,118)"/>
<path d="M0 0 C0.33 0.66 0.66 1.32 1 2 C0.01 3.485 0.01 3.485 -1 5 C-1.2475 6.11375 -1.495 7.2275 -1.75 8.375 C-3.21178583 12.61417891 -5.07424516 14.93085853 -9 17 C-12.32172015 17.5826577 -15.51593792 17.47691192 -18.875 17.3125 C-19.75414063 17.28994141 -20.63328125 17.26738281 -21.5390625 17.24414062 C-23.69345007 17.18559748 -25.8469531 17.09592783 -28 17 C-28 12.28093812 -26.71245796 10.72962969 -24 7 C-23.3125 8.8125 -23.3125 8.8125 -23 11 C-24.375 12.625 -24.375 12.625 -26 14 C-26.33 14.66 -26.66 15.32 -27 16 C-24.24452835 16.0210571 -21.50408223 15.99347728 -18.75 15.9375 C-17.97269531 15.94845703 -17.19539063 15.95941406 -16.39453125 15.97070312 C-14.0656986 15.90103719 -12.20329717 15.76891716 -10 15 C-8.01220954 12.76205003 -7.18544509 10.80746538 -6 8 C-5.34 8 -4.68 8 -4 8 C-3.896875 7.4225 -3.79375 6.845 -3.6875 6.25 C-2.90207202 3.67950842 -1.69495803 2.06342716 0 0 Z " fill="#A21945" transform="translate(126,127)"/>
<path d="M0 0 C0.33 0.66 0.66 1.32 1 2 C3.02463255 2.65213292 3.02463255 2.65213292 5 3 C5.33 2.34 5.66 1.68 6 1 C6.33 2.32 6.66 3.64 7 5 C6.01 5.495 6.01 5.495 5 6 C5 6.99 5 7.98 5 9 C3 12 3 12 0.375 12.6875 C-0.800625 12.8421875 -0.800625 12.8421875 -2 13 C-2.66 11.35 -3.32 9.7 -4 8 C-1.525 8.495 -1.525 8.495 1 9 C1 5.88772805 0.54372951 3.05847848 0 0 Z " fill="#D80850" transform="translate(195,64)"/>
<path d="M0 0 C2.97 0.495 2.97 0.495 6 1 C6 1.66 6 2.32 6 3 C8.41645782 3.16687448 8.41645782 3.16687448 11 3 C11.66 2.34 12.32 1.68 13 1 C14.5 2.25 14.5 2.25 16 4 C16 5.32 16 6.64 16 8 C10.18738629 6.26017005 5.16830006 4.1889511 0 1 C0 0.67 0 0.34 0 0 Z " fill="#C20C46" transform="translate(96,216)"/>
<path d="M0 0 C0.33 0 0.66 0 1 0 C1.20086443 3.71599191 1.1519437 4.77208445 -1 8 C-1.07905064 10.33199388 -1.08798769 12.66832622 -1 15 C-1.99 15.33 -2.98 15.66 -4 16 C-4 18.31 -4 20.62 -4 23 C-4.66 23.33 -5.32 23.66 -6 24 C-5.6284455 15.60286833 -3.77902488 7.55804976 0 0 Z " fill="#AD134B" transform="translate(59,102)"/>
<path d="M0 0 C-0.165 1.093125 -0.33 2.18625 -0.5 3.3125 C-1.06718184 6.87525873 -1.06718184 6.87525873 -1 10 C-0.34 10 0.32 10 1 10 C1 11.32 1 12.64 1 14 C1.598125 13.649375 2.19625 13.29875 2.8125 12.9375 C5 12 5 12 8 13 C4.91190305 14.76462683 3.76687864 15 0 15 C-0.86604534 13.23494565 -1.71748642 11.46271926 -2.5625 9.6875 C-3.03816406 8.70136719 -3.51382813 7.71523437 -4.00390625 6.69921875 C-5 4 -5 4 -4 1 C-2 0 -2 0 0 0 Z " fill="#AD174D" transform="translate(178,207)"/>
<path d="M0 0 C1 2 1 2 0.375 4.1875 C-1.76952729 8.57403309 -4.09788824 12.81760621 -8.3125 15.4375 C-8.869375 15.623125 -9.42625 15.80875 -10 16 C-8.55797524 11.84848662 -6.4989562 8.70021555 -3.875 5.1875 C-3.15054688 4.21167969 -2.42609375 3.23585938 -1.6796875 2.23046875 C-0.84824219 1.12638672 -0.84824219 1.12638672 0 0 Z " fill="#B71346" transform="translate(119,109)"/>
<path d="M0 0 C0.99 0.33 1.98 0.66 3 1 C2.01 6.94 1.02 12.88 0 19 C-0.33 19 -0.66 19 -1 19 C-0.98839844 18.16855469 -0.97679688 17.33710938 -0.96484375 16.48046875 C-0.95582031 15.39378906 -0.94679688 14.30710937 -0.9375 13.1875 C-0.92589844 12.10855469 -0.91429688 11.02960938 -0.90234375 9.91796875 C-0.86375234 6.93487831 -0.86375234 6.93487831 -2 4 C-1.0625 1.8125 -1.0625 1.8125 0 0 Z " fill="#B60D4D" transform="translate(68,112)"/>
<path d="M0 0 C2.14909962 2.76854598 4.01778828 5.57834526 5.75 8.625 C6.19859375 9.40101563 6.6471875 10.17703125 7.109375 10.9765625 C7.40328125 11.64429688 7.6971875 12.31203125 8 13 C7.67 13.66 7.34 14.32 7 15 C5.0625 14.625 5.0625 14.625 3 14 C1.68873048 11.37746095 1.44568225 8.89693463 1 6 C0.814375 4.88625 0.62875 3.7725 0.4375 2.625 C0.293125 1.75875 0.14875 0.8925 0 0 Z " fill="#B8154B" transform="translate(72,167)"/>
<path d="M0 0 C0.66 0.33 1.32 0.66 2 1 C2 2.32 2 3.64 2 5 C1.34 5 0.68 5 0 5 C0.3403125 6.3303125 0.3403125 6.3303125 0.6875 7.6875 C1.05541631 11.5874129 0.40240978 12.97474324 -2 16 C-2.66 16 -3.32 16 -4 16 C-3.27275406 10.47293087 -1.66554027 5.30039859 0 0 Z " fill="#C01048" transform="translate(219,153)"/>
<path d="M0 0 C0.99 0 1.98 0 3 0 C3 0.66 3 1.32 3 2 C3.680625 2.185625 4.36125 2.37125 5.0625 2.5625 C8.61656408 4.30172285 10.76530492 6.57896157 13.44921875 9.44140625 C14.93510225 11.10030545 14.93510225 11.10030545 17 12 C16.67 12.99 16.34 13.98 16 15 C15.5153125 14.49210937 15.030625 13.98421875 14.53125 13.4609375 C10.4248613 9.24399218 6.27979046 5.52439057 1.46875 2.12890625 C0.9840625 1.75636719 0.499375 1.38382812 0 1 C0 0.67 0 0.34 0 0 Z " fill="#B01143" transform="translate(186,73)"/>
<path d="M0 0 C1 3 1 3 1 5 C1.31478446 6.33783393 1.64587656 7.67203709 2 9 C-0.31 9.33 -2.62 9.66 -5 10 C-4.38545304 6.00544473 -2.29353263 3.25533664 0 0 Z " fill="#BD0B46" transform="translate(108,125)"/>
<path d="M0 0 C2.94721162 2.74395564 5.19168608 5.38337216 7 9 C6.67 9.66 6.34 10.32 6 11 C3.03 10.505 3.03 10.505 0 10 C0.66 8.02 1.32 6.04 2 4 C1.34 4 0.68 4 0 4 C0 2.68 0 1.36 0 0 Z " fill="#B9144B" transform="translate(217,83)"/>
<path d="M0 0 C0.66 0.33 1.32 0.66 2 1 C-0.31 4.3 -2.62 7.6 -5 11 C-6 7 -6 7 -4.75 3.8125 C-3 1 -3 1 0 0 Z " fill="#6C2138" transform="translate(131,128)"/>
<path d="M0 0 C0.66 0.33 1.32 0.66 2 1 C-1.29960578 6.74375821 -1.29960578 6.74375821 -4.5625 7.9375 C-7 8 -7 8 -10 7 C-6.7 4.69 -3.4 2.38 0 0 Z " fill="#B6124A" transform="translate(192,197)"/>
<path d="M0 0 C0.99 0.33 1.98 0.66 3 1 C3 1.66 3 2.32 3 3 C2.34 3 1.68 3 1 3 C0.67 3.99 0.34 4.98 0 6 C-0.99 6 -1.98 6 -3 6 C-3.33 7.32 -3.66 8.64 -4 10 C-4.99 10 -5.98 10 -7 10 C-6.3125 7.625 -6.3125 7.625 -5 5 C-2.375 3.6875 -2.375 3.6875 0 3 C0 2.01 0 1.02 0 0 Z " fill="#9A133C" transform="translate(136,114)"/>
<path d="M0 0 C0.33 0.66 0.66 1.32 1 2 C0.0625 4.625 0.0625 4.625 -1 7 C-1.66 7 -2.32 7 -3 7 C-3.33 8.32 -3.66 9.64 -4 11 C-4.66 11 -5.32 11 -6 11 C-6 11.99 -6 12.98 -6 14 C-6.99 14.33 -7.98 14.66 -9 15 C-7.61219205 11.10993227 -5.7847773 8.03441292 -3.375 4.6875 C-2.74335938 3.80449219 -2.11171875 2.92148438 -1.4609375 2.01171875 C-0.97882813 1.34785156 -0.49671875 0.68398437 0 0 Z " fill="#AB1249" transform="translate(132,89)"/>
<path d="M0 0 C1.32 0.33 2.64 0.66 4 1 C2.02 3.97 2.02 3.97 0 7 C-1.32 6.67 -2.64 6.34 -4 6 C-2.68 4.02 -1.36 2.04 0 0 Z " fill="#96143A" transform="translate(142,107)"/>
<path d="M0 0 C0.66 0 1.32 0 2 0 C2 1.65 2 3.3 2 5 C2.99 4.01 3.98 3.02 5 2 C5.99 2.66 6.98 3.32 8 4 C7.67 4.66 7.34 5.32 7 6 C3.9375 6.625 3.9375 6.625 1 7 C0.67 4.69 0.34 2.38 0 0 Z " fill="#C7114C" transform="translate(55,160)"/>
<path d="M0 0 C0.33 1.32 0.66 2.64 1 4 C0.01 4.66 -0.98 5.32 -2 6 C-2.515625 6.86625 -3.03125 7.7325 -3.5625 8.625 C-4.036875 9.40875 -4.51125 10.1925 -5 11 C-5.66 11 -6.32 11 -7 11 C-5.5140084 6.40693504 -3.14985318 3.56430755 0 0 Z " fill="#C60D49" transform="translate(143,99)"/>
<path d="M0 0 C0.99 0.33 1.98 0.66 3 1 C3 1.66 3 2.32 3 3 C4.32 3.33 5.64 3.66 7 4 C6.67 4.99 6.34 5.98 6 7 C6.66 7 7.32 7 8 7 C8 7.66 8 8.32 8 9 C3.33845958 7.50164772 2.13389249 4.11536409 0 0 Z " fill="#BA104D" transform="translate(65,185)"/>
<path d="M0 0 C0.33 0.99 0.66 1.98 1 3 C3.64 3 6.28 3 9 3 C9 3.66 9 4.32 9 5 C7.39504433 4.88557539 5.79101881 4.75805306 4.1875 4.625 C3.29417969 4.55539063 2.40085937 4.48578125 1.48046875 4.4140625 C-1 4 -1 4 -4 2 C-2.68 1.34 -1.36 0.68 0 0 Z " fill="#B21449" transform="translate(123,224)"/>
<path d="M0 0 C2.375 -0.1875 2.375 -0.1875 5 0 C7 3 7 3 6.625 5.1875 C6.41875 5.785625 6.2125 6.38375 6 7 C1.125 2.25 1.125 2.25 0 0 Z " fill="#B51049" transform="translate(72,195)"/>
<path d="M0 0 C0 0.66 0 1.32 0 2 C-3.27037599 5.27037599 -6.5130254 5.56856013 -11 6 C-8.24029211 2.78034079 -4.3526723 0 0 0 Z " fill="#B5174B" transform="translate(109,53)"/>
<path d="M0 0 C-4.10457614 2.98514628 -6.97745369 3.2954439 -12 3 C-8.61613364 -0.38386636 -4.56431325 -1.75550509 0 0 Z " fill="#B61249" transform="translate(122,50)"/>
<path d="M0 0 C0.33 0.66 0.66 1.32 1 2 C-0.43359375 4.6015625 -0.43359375 4.6015625 -2.4375 7.625 C-3.42556641 9.12933594 -3.42556641 9.12933594 -4.43359375 10.6640625 C-4.95050781 11.43492188 -5.46742188 12.20578125 -6 13 C-6.71484375 11.296875 -6.71484375 11.296875 -7 9 C-5.56640625 6.640625 -5.56640625 6.640625 -3.5625 4.25 C-2.57443359 3.05117187 -2.57443359 3.05117187 -1.56640625 1.828125 C-1.04949219 1.22484375 -0.53257812 0.6215625 0 0 Z " fill="#C4104B" transform="translate(135,111)"/>
<path d="M0 0 C1.65 0 3.3 0 5 0 C2.03 3.96 2.03 3.96 -1 8 C-2 6 -2 6 -1.0625 2.875 C-0.5365625 1.451875 -0.5365625 1.451875 0 0 Z " fill="#B81446" transform="translate(84,84)"/>
<path d="M0 0 C-3.96 1.98 -7.92 3.96 -12 6 C-12 5.34 -12 4.68 -12 4 C-11.34 4 -10.68 4 -10 4 C-10 3.01 -10 2.02 -10 1 C-3.375 -1.125 -3.375 -1.125 0 0 Z " fill="#AA154C" transform="translate(113,68)"/>
<path d="M0 0 C1.32 0.33 2.64 0.66 4 1 C1.36 2.65 -1.28 4.3 -4 6 C-4.33 5.01 -4.66 4.02 -5 3 C-3.35 2.67 -1.7 2.34 0 2 C0 1.34 0 0.68 0 0 Z " fill="#B3184A" transform="translate(192,213)"/>
<path d="M0 0 C0.33 0.66 0.66 1.32 1 2 C0.00390625 4.1640625 0.00390625 4.1640625 -1.4375 6.625 C-1.91058594 7.44226563 -2.38367188 8.25953125 -2.87109375 9.1015625 C-3.24363281 9.72804688 -3.61617188 10.35453125 -4 11 C-4.33 11 -4.66 11 -5 11 C-5.20086443 7.28400809 -5.1519437 6.22791555 -3 3 C-2.34 3 -1.68 3 -1 3 C-0.67 2.01 -0.34 1.02 0 0 Z " fill="#B21348" transform="translate(78,96)"/>
<path d="M0 0 C0 2.64 0 5.28 0 8 C-0.66 7.34 -1.32 6.68 -2 6 C-2.99 6.495 -2.99 6.495 -4 7 C-3.625 4.0625 -3.625 4.0625 -3 1 C-1 0 -1 0 0 0 Z " fill="#B9053C" transform="translate(148,95)"/>
<path d="M0 0 C0.33 0.66 0.66 1.32 1 2 C-0.98 4.97 -0.98 4.97 -3 8 C-3.99 7.67 -4.98 7.34 -6 7 C-4.02 4.69 -2.04 2.38 0 0 Z " fill="#CB0F4B" transform="translate(119,135)"/>
<path d="M0 0 C-3.465 2.97 -3.465 2.97 -7 6 C-7.33 5.34 -7.66 4.68 -8 4 C-7 1 -7 1 -4.5625 -0.25 C-2 -1 -2 -1 0 0 Z " fill="#B91242" transform="translate(100,75)"/>
<path d="M0 0 C0.33 0.66 0.66 1.32 1 2 C1.99 2.33 2.98 2.66 4 3 C1.03 5.475 1.03 5.475 -2 8 C-1.125 1.125 -1.125 1.125 0 0 Z " fill="#B8134B" transform="translate(204,201)"/>
<path d="M0 0 C0.66 0.66 1.32 1.32 2 2 C4.43252661 2.46162427 4.43252661 2.46162427 7.125 2.625 C8.03507812 2.69976562 8.94515625 2.77453125 9.8828125 2.8515625 C10.58148438 2.90054688 11.28015625 2.94953125 12 3 C12 3.33 12 3.66 12 4 C7.71 4 3.42 4 -1 4 C-0.67 2.68 -0.34 1.36 0 0 Z " fill="#C90B49" transform="translate(100,139)"/>
<path d="M0 0 C0 3 0 3 -2.5 5.6875 C-3.325 6.450625 -4.15 7.21375 -5 8 C-5 6.68 -5 5.36 -5 4 C-2.5 1.75 -2.5 1.75 0 0 Z " fill="#B2144B" transform="translate(218,190)"/>
<path d="M0 0 C2.64 0.66 5.28 1.32 8 2 C8 2.66 8 3.32 8 4 C5.69 3.67 3.38 3.34 1 3 C0.67 2.01 0.34 1.02 0 0 Z " fill="#B00F4F" transform="translate(164,48)"/>
</svg>
