<svg width="118" height="24" viewBox="0 0 118 24" fill="none" xmlns="http://www.w3.org/2000/svg">
<path d="M11.08 23L6.28 14.66H3.67V23H0.25V2.15H7.45C9.05 2.15 10.4 2.43 11.5 2.99C12.62 3.55 13.45 4.3 13.99 5.24C14.55 6.18 14.83 7.23 14.83 8.39C14.83 9.75 14.43 10.99 13.63 12.11C12.85 13.21 11.64 13.96 10 14.36L15.16 23H11.08ZM3.67 11.93H7.45C8.73 11.93 9.69 11.61 10.33 10.97C10.99 10.33 11.32 9.47 11.32 8.39C11.32 7.31 11 6.47 10.36 5.87C9.72 5.25 8.75 4.94 7.45 4.94H3.67V11.93ZM33.7551 14.33C33.7551 14.95 33.7151 15.51 33.6351 16.01H21.0051C21.1051 17.33 21.5951 18.39 22.4751 19.19C23.3551 19.99 24.4351 20.39 25.7151 20.39C27.5551 20.39 28.8551 19.62 29.6151 18.08H33.3051C32.8051 19.6 31.8951 20.85 30.5751 21.83C29.2751 22.79 27.6551 23.27 25.7151 23.27C24.1351 23.27 22.7151 22.92 21.4551 22.22C20.2151 21.5 19.2351 20.5 18.5151 19.22C17.8151 17.92 17.4651 16.42 17.4651 14.72C17.4651 13.02 17.8051 11.53 18.4851 10.25C19.1851 8.95 20.1551 7.95 21.3951 7.25C22.6551 6.55 24.0951 6.2 25.7151 6.2C27.2751 6.2 28.6651 6.54 29.8851 7.22C31.1051 7.9 32.0551 8.86 32.7351 10.1C33.4151 11.32 33.7551 12.73 33.7551 14.33ZM30.1851 13.25C30.1651 11.99 29.7151 10.98 28.8351 10.22C27.9551 9.46 26.8651 9.08 25.5651 9.08C24.3851 9.08 23.3751 9.46 22.5351 10.22C21.6951 10.96 21.1951 11.97 21.0351 13.25H30.1851ZM35.3807 14.66C35.3807 13 35.7207 11.53 36.4007 10.25C37.1007 8.97 38.0407 7.98 39.2207 7.28C40.4207 6.56 41.7407 6.2 43.1807 6.2C44.4807 6.2 45.6107 6.46 46.5707 6.98C47.5507 7.48 48.3307 8.11 48.9107 8.87V6.47H52.3607V23H48.9107V20.54C48.3307 21.32 47.5407 21.97 46.5407 22.49C45.5407 23.01 44.4007 23.27 43.1207 23.27C41.7007 23.27 40.4007 22.91 39.2207 22.19C38.0407 21.45 37.1007 20.43 36.4007 19.13C35.7207 17.81 35.3807 16.32 35.3807 14.66ZM48.9107 14.72C48.9107 13.58 48.6707 12.59 48.1907 11.75C47.7307 10.91 47.1207 10.27 46.3607 9.83C45.6007 9.39 44.7807 9.17 43.9007 9.17C43.0207 9.17 42.2007 9.39 41.4407 9.83C40.6807 10.25 40.0607 10.88 39.5807 11.72C39.1207 12.54 38.8907 13.52 38.8907 14.66C38.8907 15.8 39.1207 16.8 39.5807 17.66C40.0607 18.52 40.6807 19.18 41.4407 19.64C42.2207 20.08 43.0407 20.3 43.9007 20.3C44.7807 20.3 45.6007 20.08 46.3607 19.64C47.1207 19.2 47.7307 18.56 48.1907 17.72C48.6707 16.86 48.9107 15.86 48.9107 14.72ZM59.6727 0.8V23H56.2527V0.8H59.6727ZM66.9829 0.8V23H63.5629V0.8H66.9829ZM78.043 23.27C76.483 23.27 75.073 22.92 73.813 22.22C72.553 21.5 71.563 20.5 70.843 19.22C70.123 17.92 69.763 16.42 69.763 14.72C69.763 13.04 70.133 11.55 70.873 10.25C71.613 8.95 72.623 7.95 73.903 7.25C75.183 6.55 76.613 6.2 78.193 6.2C79.773 6.2 81.203 6.55 82.483 7.25C83.763 7.95 84.773 8.95 85.513 10.25C86.253 11.55 86.623 13.04 86.623 14.72C86.623 16.4 86.243 17.89 85.483 19.19C84.723 20.49 83.683 21.5 82.363 22.22C81.063 22.92 79.623 23.27 78.043 23.27ZM78.043 20.3C78.923 20.3 79.743 20.09 80.503 19.67C81.283 19.25 81.913 18.62 82.393 17.78C82.873 16.94 83.113 15.92 83.113 14.72C83.113 13.52 82.883 12.51 82.423 11.69C81.963 10.85 81.353 10.22 80.593 9.8C79.833 9.38 79.013 9.17 78.133 9.17C77.253 9.17 76.433 9.38 75.673 9.8C74.933 10.22 74.343 10.85 73.903 11.69C73.463 12.51 73.243 13.52 73.243 14.72C73.243 16.5 73.693 17.88 74.593 18.86C75.513 19.82 76.663 20.3 78.043 20.3ZM111.604 6.47L106.474 23H102.874L99.5439 10.79L96.2139 23H92.6139L87.4539 6.47H90.9339L94.3839 19.76L97.8939 6.47H101.464L104.824 19.7L108.244 6.47H111.604Z" fill="white"/>
<path d="M114.94 23.21C114.32 23.21 113.8 23 113.38 22.58C112.96 22.16 112.75 21.64 112.75 21.02C112.75 20.4 112.96 19.88 113.38 19.46C113.8 19.04 114.32 18.83 114.94 18.83C115.54 18.83 116.05 19.04 116.47 19.46C116.89 19.88 117.1 20.4 117.1 21.02C117.1 21.64 116.89 22.16 116.47 22.58C116.05 23 115.54 23.21 114.94 23.21Z" fill="#ED6E5A"/>
</svg>
