<?xml version="1.0" encoding="UTF-8"?>
<svg version="1.1" xmlns="http://www.w3.org/2000/svg" width="378" height="374">
<path d="M0 0 C0.54672363 0.40831055 1.09344727 0.81662109 1.65673828 1.23730469 C39.9115115 29.97898616 65.31915406 69.41996828 72.8125 117 C77.95702495 153.51718613 71.5539859 190.64740098 54 223 C53.67773438 223.60827637 53.35546875 224.21655273 53.0234375 224.84326172 C46.05251357 237.96687613 37.21141468 249.23275404 27 260 C26.51611816 260.52174805 26.03223633 261.04349609 25.53369141 261.58105469 C11.49660664 276.64842409 -4.75548287 287.59397045 -23 297 C-23.67949707 297.36714111 -24.35899414 297.73428223 -25.05908203 298.11254883 C-27.47337556 299.21644279 -29.37617328 299.14576815 -32 299 C-39.34818482 284.84570957 -39.34818482 284.84570957 -41 279 C-40 276 -40 276 -36.78125 274.16015625 C-35.3565393 273.45611567 -33.92925534 272.75726821 -32.5 272.0625 C-10.2494506 260.72718087 9.38969849 244.0474641 23 223 C23.71027344 221.91203125 24.42054688 220.8240625 25.15234375 219.703125 C40.0978334 196.1939084 47.43148766 169.61250045 47.3125 141.8125 C47.31067719 141.13468475 47.30885437 140.45686951 47.30697632 139.7585144 C47.13079278 100.73472057 31.27515018 65.36496495 4 37.625 C-23.72175639 10.41476524 -60.72316796 -3.27752131 -99.25390625 -3.1809082 C-133.91492006 -2.75343094 -166.97912696 8.78685034 -193 32 C-193.97195312 32.82886719 -194.94390625 33.65773437 -195.9453125 34.51171875 C-206.94022679 44.04217179 -215.68977861 55.43661952 -223 68 C-223.65742188 69.12792969 -224.31484375 70.25585938 -224.9921875 71.41796875 C-230.17081241 80.56895253 -233.93045485 89.9537905 -237 100 C-237.20109375 100.65581055 -237.4021875 101.31162109 -237.609375 101.98730469 C-248.23020501 137.67114063 -243.45341654 178.06316383 -226.125 210.875 C-217.21454151 227.09831306 -205.44018718 242.33199776 -191 254 C-190.47631836 254.42345703 -189.95263672 254.84691406 -189.41308594 255.28320312 C-160.41836034 278.4057898 -125.74579209 288 -89 288 C-89.33 219.03 -89.66 150.06 -90 79 C-96.26041769 88.67519098 -102.4607827 98.33389234 -108.54296875 108.11328125 C-111.3019956 112.51044612 -114.19008818 116.81650928 -117.09423828 121.11865234 C-121.20284609 127.23405174 -125.10585744 133.4761386 -128.97802734 139.7434082 C-129.45836426 140.51386475 -129.93870117 141.28432129 -130.43359375 142.078125 C-131.06865845 143.10534668 -131.06865845 143.10534668 -131.71655273 144.15332031 C-134.75577576 148.52628645 -137.14381482 149.61557511 -142.27099609 150.61572266 C-147.59817801 151.36585545 -152.9405265 151.52308234 -158.3125 151.6875 C-160.03243164 151.75807617 -160.03243164 151.75807617 -161.78710938 151.83007812 C-169.26998583 152.0884004 -176.5560561 151.7977168 -184 151 C-183.3874699 146.91646602 -181.13647158 143.94250034 -178.84375 140.625 C-177.92757857 139.27528691 -177.01226596 137.9249906 -176.09765625 136.57421875 C-175.59959473 135.84122559 -175.1015332 135.10823242 -174.58837891 134.35302734 C-171.69883455 130.07245119 -168.86849375 125.75284023 -166.03125 121.4375 C-164.78783492 119.5494301 -163.5443443 117.66140994 -162.30078125 115.7734375 C-161.03380488 113.84899078 -159.76687803 111.92451146 -158.5 110 C-144.36966551 88.53464184 -144.36966551 88.53464184 -137.44087219 78.16784668 C-132.93527549 71.419052 -128.51215238 64.61689986 -124.09106445 57.8125 C-112.75916301 40.3795815 -112.75916301 40.3795815 -110 39 C-108.64154807 38.91097507 -107.27884026 38.88239868 -105.91748047 38.88647461 C-104.65639969 38.88658791 -104.65639969 38.88658791 -103.36984253 38.88670349 C-102.00727829 38.89444542 -102.00727829 38.89444542 -100.6171875 38.90234375 C-99.68778351 38.9037587 -98.75837952 38.90517365 -97.80081177 38.90663147 C-94.82550876 38.91223947 -91.85028036 38.92479332 -88.875 38.9375 C-86.86067817 38.94251397 -84.84635516 38.94707705 -82.83203125 38.95117188 C-77.88799198 38.9622115 -72.94400865 38.97948151 -68 39 C-65.98739008 44.84831118 -65.71912576 50.06862459 -65.75276184 56.2250824 C-65.75034743 57.24066241 -65.74793301 58.25624242 -65.74544543 59.30259758 C-65.73981945 62.69846098 -65.74846364 66.09413535 -65.75708008 69.48999023 C-65.75600686 71.92808584 -65.75406759 74.36618121 -65.75132751 76.80427551 C-65.7469835 82.737008 -65.75191843 88.66968975 -65.76117782 94.60241257 C-65.77158963 101.52421771 -65.77149082 108.44601092 -65.77100524 115.36782242 C-65.77050482 127.73212447 -65.77965735 140.09640065 -65.79418945 152.46069336 C-65.80824883 164.42912264 -65.81536135 176.39752914 -65.81469727 188.3659668 C-65.81465731 189.10183018 -65.81461735 189.83769356 -65.81457619 190.59585582 C-65.81453583 191.33050385 -65.81449548 192.06515187 -65.8144539 192.82206196 C-65.81376137 206.4780373 -65.81967305 220.13400305 -65.82860712 233.78997527 C-65.83160747 238.60108223 -65.8326848 243.41218741 -65.83313942 248.22329521 C-65.83389873 254.72152896 -65.84030598 261.21974374 -65.85030556 267.71796989 C-65.85320652 270.09300085 -65.85446085 272.46803452 -65.85387802 274.84306717 C-65.84975248 301.9093734 -65.84975248 301.9093734 -67 312 C-71.47636458 316.47636458 -87.16187559 314.24598461 -93.04873657 314.25204468 C-132.49942338 314.1881129 -170.52326309 303.20220137 -202 279 C-202.9075 278.31679688 -203.815 277.63359375 -204.75 276.9296875 C-241.87481283 247.87068222 -263.64608635 205.69519273 -269.4609375 159.32421875 C-269.7479771 156.20945124 -269.91154846 153.12656952 -270 150 C-270.03996094 148.71480469 -270.07992188 147.42960938 -270.12109375 146.10546875 C-270.92195112 107.68681096 -259.28901122 69.69128058 -236 39 C-235.36835938 38.15824219 -234.73671875 37.31648438 -234.0859375 36.44921875 C-225.52047345 25.39871266 -216.1231136 15.49200882 -205 7 C-204.08992188 6.27425781 -203.17984375 5.54851563 -202.2421875 4.80078125 C-146.07762346 -39.04430757 -57.96500287 -43.57424626 0 0 Z " fill="#D20951" transform="translate(289,47)"/>
<path d="M0 0 C0.33 0 0.66 0 1 0 C1.92907656 19.13897714 1.92907656 19.13897714 -4 27 C-5.14386773 28.71276477 -6.28701135 30.42604161 -7.42041016 32.14575195 C-8.70981136 34.09625077 -10.01641171 36.03446222 -11.32421875 37.97265625 C-13.97308488 41.92720667 -16.49732813 45.95183578 -19 50 C-22.6268431 55.86038283 -26.37902407 61.61699591 -30.23461914 67.32910156 C-33.8654709 72.73349303 -37.3088435 78.246517 -40.68945312 83.81054688 C-45.37600931 91.44072512 -45.37600931 91.44072512 -49.12109375 92.73046875 C-49.88550781 92.88128906 -50.64992187 93.03210938 -51.4375 93.1875 C-52.19933594 93.34605469 -52.96117187 93.50460938 -53.74609375 93.66796875 C-56 94 -56 94 -60 94 C-58.29392533 88.85075645 -55.28372786 84.60992191 -52.3125 80.125 C-51.12626343 78.3177337 -49.94006706 76.51044102 -48.75390625 74.703125 C-48.13531738 73.76404297 -47.51672852 72.82496094 -46.87939453 71.85742188 C-44.43762863 68.14497343 -42.01265208 64.42172515 -39.58813477 60.69799805 C-34.97604502 53.61477401 -30.35318601 46.53858106 -25.7265625 39.46484375 C-25.00823242 38.3665625 -24.28990234 37.26828125 -23.54980469 36.13671875 C-22.11081199 33.93719871 -20.67136581 31.73797527 -19.23144531 29.5390625 C-15.82849418 24.33954179 -12.43593321 19.13393326 -9.0703125 13.91015625 C-8.46525879 12.97260498 -7.86020508 12.03505371 -7.23681641 11.0690918 C-6.10327183 9.31077518 -4.97260236 7.55060077 -3.84521484 5.78833008 C-3.10198975 4.63627075 -3.10198975 4.63627075 -2.34375 3.4609375 C-1.69696289 2.45232666 -1.69696289 2.45232666 -1.03710938 1.42333984 C-0.69486328 0.9536377 -0.35261719 0.48393555 0 0 Z " fill="#C9C4C7" transform="translate(200,104)"/>
<path d="M0 0 C1.20355411 4.28091458 1.12094043 8.44024849 1.08901978 12.85516357 C1.08649621 13.75948537 1.08397265 14.66380717 1.08137262 15.59553266 C1.07163372 18.63241246 1.05460125 21.66920751 1.03759766 24.70605469 C1.02909204 26.88082724 1.02102048 29.05560153 1.01335144 31.2303772 C0.99113265 37.14373957 0.96246225 43.05705468 0.93239641 48.97038174 C0.90175532 55.15661232 0.87611698 61.34286397 0.84970093 67.52911377 C0.80448735 77.92307431 0.75501219 88.31700828 0.703125 98.7109375 C0.64321742 110.72369252 0.59041486 122.73646033 0.54135668 134.74926448 C0.49397237 146.30364166 0.44115232 157.85798814 0.38599777 169.41233063 C0.36264591 174.32918953 0.34126713 179.24605117 0.32149124 184.16292572 C0.29796595 189.95770839 0.26969998 195.75244917 0.23780251 201.54719162 C0.22687028 203.67240236 0.21757171 205.79762224 0.21003914 207.92284775 C0.19947394 210.82757569 0.1829504 213.73221183 0.16494751 216.63690186 C0.16245717 217.89354082 0.16245717 217.89354082 0.15991652 219.17556643 C0.1210333 224.19800065 -0.28686047 229.02699766 -1 234 C-2.32 234.33 -3.64 234.66 -5 235 C-5 234.34 -5 233.68 -5 233 C-4.34 233 -3.68 233 -3 233 C-3.00138269 231.37827094 -3.00138269 231.37827094 -3.00279331 229.72377968 C-3.0250432 203.35497681 -3.04144959 176.98617517 -3.05181217 150.61736488 C-3.05695728 137.86534923 -3.06396581 125.11333979 -3.07543945 112.36132812 C-3.08544099 101.24008949 -3.0918664 90.11885536 -3.09408849 78.99761236 C-3.09538634 73.11502675 -3.09841315 67.23245404 -3.10573006 61.34987259 C-3.11257677 55.79972556 -3.11459956 50.24959658 -3.11310768 44.69944572 C-3.11338015 42.67518325 -3.1153335 40.65092009 -3.11920547 38.6266613 C-3.13669472 29.00166964 -3.07027088 19.39112086 -2.61790466 9.77523804 C-2.58748803 9.01629136 -2.5570714 8.25734468 -2.52573305 7.47539961 C-2.23749602 2.23749602 -2.23749602 2.23749602 0 0 Z " fill="#B3144F" transform="translate(203,102)"/>
<path d="M0 0 C1.26108078 0.0001133 1.26108078 0.0001133 2.54763794 0.00022888 C3.91020218 0.00797081 3.91020218 0.00797081 5.30029297 0.01586914 C6.22969696 0.01728409 7.15910095 0.01869904 8.1166687 0.02015686 C11.09197171 0.02576486 14.06720011 0.03831871 17.04248047 0.05102539 C19.0568023 0.05603936 21.07112531 0.06060245 23.08544922 0.06469727 C28.02948849 0.07573689 32.97347182 0.0930069 37.91748047 0.11352539 C39.4762199 4.9570599 40.16591088 9.00640464 40.1579895 14.14341736 C40.15969835 14.81501737 40.1614072 15.48661738 40.16316783 16.1785689 C40.16643938 18.40952209 40.15549809 20.64016867 40.14453125 22.87109375 C40.14396663 24.4780171 40.14428469 26.08494096 40.14541626 27.69186401 C40.14598879 32.04052989 40.13425065 36.38908486 40.12026834 40.73772502 C40.10774434 45.28742961 40.10658917 49.83713691 40.10421753 54.38685608 C40.09800767 62.99626906 40.08160353 71.6056311 40.06151855 80.21502167 C40.03914417 90.01910156 40.02816225 99.82318391 40.01812768 109.62728298 C39.99723688 129.78939219 39.9620705 149.95145558 39.91748047 170.11352539 C39.58748047 170.11352539 39.25748047 170.11352539 38.91748047 170.11352539 C38.13641234 159.17042058 37.72516186 148.27004569 37.60107422 137.30102539 C37.58028771 135.70336586 37.55924359 134.10570967 37.53796387 132.50805664 C37.48265509 128.25466354 37.43301478 124.00122331 37.38505173 119.7477417 C37.35483676 117.10093642 37.32303659 114.45415445 37.290802 111.80737305 C36.88056697 77.9087588 36.79686774 44.01417931 36.91748047 10.11352539 C35.92748047 10.11352539 34.93748047 10.11352539 33.91748047 10.11352539 C33.91748047 9.45352539 33.91748047 8.79352539 33.91748047 8.11352539 C34.57748047 7.78352539 35.23748047 7.45352539 35.91748047 7.11352539 C36.24748047 5.79352539 36.57748047 4.47352539 36.91748047 3.11352539 C23.38748047 3.11352539 9.85748047 3.11352539 -4.08251953 3.11352539 C-4.74251953 4.43352539 -5.40251953 5.75352539 -6.08251953 7.11352539 C-6.70126953 7.71165039 -7.32001953 8.30977539 -7.95751953 8.92602539 C-10.68541663 11.73415475 -12.22827735 14.66993277 -14.08251953 18.11352539 C-14.74251953 18.11352539 -15.40251953 18.11352539 -16.08251953 18.11352539 C-16.18564453 18.64977539 -16.28876953 19.18602539 -16.39501953 19.73852539 C-17.2634465 22.73854583 -18.6387225 25.35147889 -20.08251953 28.11352539 C-20.74251953 28.11352539 -21.40251953 28.11352539 -22.08251953 28.11352539 C-22.08251953 29.10352539 -22.08251953 30.09352539 -22.08251953 31.11352539 C-22.74251953 31.11352539 -23.40251953 31.11352539 -24.08251953 31.11352539 C-25.07251953 33.58852539 -25.07251953 33.58852539 -26.08251953 36.11352539 C-26.74251953 36.11352539 -27.40251953 36.11352539 -28.08251953 36.11352539 C-28.57751953 38.58852539 -28.57751953 38.58852539 -29.08251953 41.11352539 C-30.56751953 41.60852539 -30.56751953 41.60852539 -32.08251953 42.11352539 C-30.57868116 37.86382819 -28.38620025 34.26067296 -25.90673828 30.52758789 C-25.49970169 29.90757904 -25.0926651 29.28757019 -24.67329407 28.64877319 C-23.81382535 27.34137788 -22.95222488 26.03538176 -22.08862305 24.73071289 C-20.78059849 22.75450842 -19.47883529 20.77430133 -18.17822266 18.79321289 C-17.33809297 17.51693081 -16.49760937 16.24088162 -15.65673828 14.96508789 C-15.27321701 14.38256256 -14.88969574 13.80003723 -14.49455261 13.19985962 C-5.73932656 -0.01718361 -5.73932656 -0.01718361 0 0 Z " fill="#AC1A51" transform="translate(183.08251953125,85.886474609375)"/>
<path d="M0 0 C0.66 0 1.32 0 2 0 C0.65200527 3.6716145 -1.00549692 6.76733396 -3.16015625 10.02734375 C-3.78510986 10.97851074 -4.41006348 11.92967773 -5.05395508 12.90966797 C-5.7167749 13.90885254 -6.37959473 14.90803711 -7.0625 15.9375 C-8.42237544 18.00097237 -9.78175148 20.06477394 -11.140625 22.12890625 C-11.80126953 23.13066895 -12.46191406 24.13243164 -13.14257812 25.16455078 C-14.75603212 27.62757059 -16.34791417 30.10148129 -17.921875 32.58984375 C-18.54050415 33.56739624 -18.54050415 33.56739624 -19.17163086 34.56469727 C-20.23841907 36.25745022 -21.30100823 37.95284743 -22.36328125 39.6484375 C-24 42 -24 42 -26 43 C-25.690625 42.278125 -25.38125 41.55625 -25.0625 40.8125 C-23.53327591 36.76455389 -22.60965886 34.17102342 -24 30 C-23.36328125 27.8359375 -23.36328125 27.8359375 -22.3125 25.375 C-21.93867188 24.49199219 -21.56484375 23.60898438 -21.1796875 22.69921875 C-20.79039062 21.80847656 -20.40109375 20.91773438 -20 20 C-19.65195313 19.18144531 -19.30390625 18.36289063 -18.9453125 17.51953125 C-15.4729118 9.48455754 -15.4729118 9.48455754 -13 6 C-12.34 6 -11.68 6 -11 6 C-10.67 5.01 -10.34 4.02 -10 3 C-9.67 3.99 -9.34 4.98 -9 6 C-10.4375 8.1875 -10.4375 8.1875 -12 10 C-11.34 10.66 -10.68 11.32 -10 12 C-9.01 11.67 -8.02 11.34 -7 11 C-7.185625 10.21625 -7.37125 9.4325 -7.5625 8.625 C-8 6 -8 6 -7 4 C-5.68 4.33 -4.36 4.66 -3 5 C-2.67 4.01 -2.34 3.02 -2 2 C-1.34 1.34 -0.68 0.68 0 0 Z " fill="#C3C0C1" transform="translate(183,146)"/>
<path d="M0 0 C0.33 0 0.66 0 1 0 C1.13510253 2.91821463 1.2341305 5.83017652 1.3125 8.75 C1.35439453 9.575 1.39628906 10.4 1.43945312 11.25 C1.56331392 17.39349561 1.56331392 17.39349561 -1.39453125 20.578125 C-4 22 -4 22 -6 22 C-6.33 22.99 -6.66 23.98 -7 25 C-7.9075 24.89816406 -8.815 24.79632813 -9.75 24.69140625 C-13.10658259 24.66543884 -13.10658259 24.66543884 -15.125 27.08984375 C-15.74375 28.02957031 -16.3625 28.96929687 -17 29.9375 C-17.67160156 30.93652344 -18.34320313 31.93554688 -19.03515625 32.96484375 C-19.68355469 33.96644531 -20.33195313 34.96804687 -21 36 C-21.59683594 36.86753906 -22.19367188 37.73507813 -22.80859375 38.62890625 C-25.87539011 43.07086925 -25.87539011 43.07086925 -28 48 C-28.66 48 -29.32 48 -30 48 C-28.67691649 44.41377875 -27.08572507 41.37015891 -24.98046875 38.18359375 C-24.07385498 36.80312866 -24.07385498 36.80312866 -23.14892578 35.39477539 C-22.50165527 34.41887451 -21.85438477 33.44297363 -21.1875 32.4375 C-19.83430405 30.38303072 -18.48144637 28.3283386 -17.12890625 26.2734375 C-16.44328613 25.23413086 -15.75766602 24.19482422 -15.05126953 23.12402344 C-13.06928803 20.10552364 -11.10666883 17.07552616 -9.15234375 14.0390625 C-8.55719971 13.11552979 -7.96205566 12.19199707 -7.34887695 11.24047852 C-6.21357868 9.47683501 -5.08054357 7.71173228 -3.94995117 5.94506836 C-3.44310791 5.16010986 -2.93626465 4.37515137 -2.4140625 3.56640625 C-1.74818115 2.52915405 -1.74818115 2.52915405 -1.06884766 1.47094727 C-0.71612793 0.98553467 -0.3634082 0.50012207 0 0 Z " fill="#DABBC7" transform="translate(200,104)"/>
<path d="M0 0 C0.66 0.33 1.32 0.66 2 1 C1.28714844 2.09957031 0.57429688 3.19914063 -0.16015625 4.33203125 C-0.61938477 5.04359375 -1.07861328 5.75515625 -1.55175781 6.48828125 C-2.56575307 8.04827395 -3.59001934 9.60163463 -4.62402344 11.1484375 C-6.89564727 14.57374316 -8.89047288 17.73788628 -10.48046875 21.54296875 C-11.98150429 25.03922691 -12.89589316 26.75077973 -16 29 C-23.49266076 30.78938518 -31.36147076 30.35607975 -39 30 C-39.73798828 29.96729004 -40.47597656 29.93458008 -41.23632812 29.90087891 C-44.51077264 29.73153957 -47.75266534 29.4539285 -51 29 C-50.05418186 24.39659522 -47.70115602 21.11058508 -45.125 17.25 C-44.67769531 16.55261719 -44.23039062 15.85523438 -43.76953125 15.13671875 C-42.59545081 13.36693968 -41.30476083 11.67576311 -40 10 C-39.01 10 -38.02 10 -37 10 C-37.33 10.99 -37.66 11.98 -38 13 C-38.66 13 -39.32 13 -40 13 C-40.1546875 14.1446875 -40.1546875 14.1446875 -40.3125 15.3125 C-41.04364039 18.17059424 -41.76951913 19.15742885 -44 21 C-42.68 21.33 -41.36 21.66 -40 22 C-40 22.66 -40 23.32 -40 24 C-40.66 24 -41.32 24 -42 24 C-42.33 24.66 -42.66 25.32 -43 26 C-41.25493385 27.74506615 -38.80960857 27.23282784 -36.43359375 27.31640625 C-35.30888672 27.35830078 -34.18417969 27.40019531 -33.02539062 27.44335938 C-31.84138672 27.48267578 -30.65738281 27.52199219 -29.4375 27.5625 C-28.24962891 27.60568359 -27.06175781 27.64886719 -25.83789062 27.69335938 C-22.89205216 27.79983546 -19.9461257 27.90184841 -17 28 C-16.814375 26.33710938 -16.814375 26.33710938 -16.625 24.640625 C-15.92346829 20.55420279 -15.02442874 19.64637515 -12 17 C-11.505 15.515 -11.505 15.515 -11 14 C-10.34 14 -9.68 14 -9 14 C-9 13.01 -9 12.02 -9 11 C-8.01 11 -7.02 11 -6 11 C-5.88785156 10.41734375 -5.77570313 9.8346875 -5.66015625 9.234375 C-4.93999124 6.79689343 -3.95620605 5.2749414 -2.4375 3.25 C-1.98246094 2.63640625 -1.52742188 2.0228125 -1.05859375 1.390625 C-0.53458984 0.70226562 -0.53458984 0.70226562 0 0 Z M-41 19 C-40.34 19 -39.68 19 -39 19 C-38.67 19.99 -38.34 20.98 -38 22 C-38.99 21.67 -39.98 21.34 -41 21 C-41 20.34 -41 19.68 -41 19 Z " fill="#CE0A50" transform="translate(156,169)"/>
<path d="M0 0 C1.94057779 2.91086669 2.75181737 5.04305699 3.6875 8.375 C3.95949219 9.31085938 4.23148438 10.24671875 4.51171875 11.2109375 C5.02746703 14.15689166 4.77611144 16.13515913 4 19 C4.66 19 5.32 19 6 19 C7.8211742 22.18329209 8.40242492 24.9410318 8.875 28.5625 C11.14897074 42.8437253 18.77427981 60.67876225 28 72 C28.99 72 29.98 72 31 72 C30.9175 72.721875 30.835 73.44375 30.75 74.1875 C31.07426559 77.83548794 32.57319587 79.34568298 35 82 C34.67 82.66 34.34 83.32 34 84 C26.4060255 74.64510388 20.55576268 64.66914613 15 54 C14.50628906 53.05640625 14.01257812 52.1128125 13.50390625 51.140625 C6.06725927 35.82844696 -0.36925966 17.15971378 0 0 Z " fill="#AB194F" transform="translate(21,210)"/>
<path d="M0 0 C0.90720795 0.00141495 1.81441589 0.0028299 2.74911499 0.00428772 C5.65308905 0.00989529 8.55698665 0.02244907 11.4609375 0.03515625 C13.42708222 0.04017027 15.39322815 0.04473335 17.359375 0.04882812 C22.1849254 0.05986719 27.01041847 0.0771369 31.8359375 0.09765625 C31.8359375 0.75765625 31.8359375 1.41765625 31.8359375 2.09765625 C18.3059375 2.42765625 4.7759375 2.75765625 -9.1640625 3.09765625 C-9.8240625 4.41765625 -10.4840625 5.73765625 -11.1640625 7.09765625 C-11.7828125 7.69578125 -12.4015625 8.29390625 -13.0390625 8.91015625 C-15.7669596 11.71828561 -17.30982032 14.65406363 -19.1640625 18.09765625 C-19.8240625 18.09765625 -20.4840625 18.09765625 -21.1640625 18.09765625 C-21.2671875 18.63390625 -21.3703125 19.17015625 -21.4765625 19.72265625 C-22.34498947 22.72267669 -23.72026546 25.33560975 -25.1640625 28.09765625 C-25.8240625 28.09765625 -26.4840625 28.09765625 -27.1640625 28.09765625 C-27.1640625 29.08765625 -27.1640625 30.07765625 -27.1640625 31.09765625 C-27.8240625 31.09765625 -28.4840625 31.09765625 -29.1640625 31.09765625 C-30.1540625 33.57265625 -30.1540625 33.57265625 -31.1640625 36.09765625 C-31.8240625 36.09765625 -32.4840625 36.09765625 -33.1640625 36.09765625 C-33.6590625 38.57265625 -33.6590625 38.57265625 -34.1640625 41.09765625 C-35.6490625 41.59265625 -35.6490625 41.59265625 -37.1640625 42.09765625 C-35.66022413 37.84795905 -33.46774322 34.24480382 -30.98828125 30.51171875 C-30.58124466 29.8917099 -30.17420807 29.27170105 -29.75483704 28.63290405 C-28.89536832 27.32550874 -28.03376785 26.01951262 -27.17016602 24.71484375 C-25.86214146 22.73863928 -24.56037826 20.75843219 -23.25976562 18.77734375 C-22.41963594 17.50106167 -21.57915234 16.22501248 -20.73828125 14.94921875 C-20.35475998 14.36669342 -19.97123871 13.78416809 -19.57609558 13.18399048 C-10.80110815 -0.06288489 -10.80110815 -0.06288489 0 0 Z " fill="#AB194E" transform="translate(188.1640625,85.90234375)"/>
<path d="M0 0 C1.22847656 0.00064453 2.45695312 0.00128906 3.72265625 0.00195312 C25.09951258 0.10396357 25.09951258 0.10396357 32.5 3.1875 C32.5 3.8475 32.5 4.5075 32.5 5.1875 C31.90574219 5.12691406 31.31148438 5.06632812 30.69921875 5.00390625 C28.92612742 4.82466685 27.15264773 4.64924943 25.37890625 4.4765625 C23.61425754 4.29937932 21.8507458 4.10963159 20.08984375 3.8984375 C-5.2455765 1.08785205 -29.21840374 5.08069134 -53.5 12.1875 C-49.2008715 6.87681185 -41.67341693 5.55224175 -35.3125 4.125 C-34.63380859 3.96451172 -33.95511719 3.80402344 -33.25585938 3.63867188 C-31.00972836 3.12129295 -28.75873374 2.64678347 -26.5 2.1875 C-25.60394043 2.00292236 -24.70788086 1.81834473 -23.78466797 1.62817383 C-15.81834485 0.13224734 -8.09040699 -0.08064939 0 0 Z " fill="#B20E4A" transform="translate(190.5,40.8125)"/>
<path d="M0 0 C1.32 0.66 2.64 1.32 4 2 C3.33355469 2.680625 2.66710937 3.36125 1.98046875 4.0625 C-13.57694341 20.28405232 -25.235387 39.55039798 -32 61 C-32.33 61 -32.66 61 -33 61 C-33 59.02 -33 57.04 -33 55 C-33.99 54.67 -34.98 54.34 -36 54 C-35.34 54 -34.68 54 -34 54 C-34 53.01 -34 52.02 -34 51 C-34.99 51.495 -34.99 51.495 -36 52 C-35.67 51.01 -35.34 50.02 -35 49 C-34.34 49 -33.68 49 -33 49 C-33 48.34 -33 47.68 -33 47 C-30.525 46.505 -30.525 46.505 -28 46 C-27.87625 45.34 -27.7525 44.68 -27.625 44 C-26.85108679 40.28521658 -26.03518606 36.65359786 -25 33 C-24.01 32.505 -24.01 32.505 -23 32 C-21.65974722 30.45579441 -21.65974722 30.45579441 -20.375 28.625 C-19.92898437 28.01914063 -19.48296875 27.41328125 -19.0234375 26.7890625 C-17.75172646 24.90951322 -17.75172646 24.90951322 -18 22 C-17.01 21.67 -16.02 21.34 -15 21 C-14.67 20.34 -14.34 19.68 -14 19 C-13.34 19 -12.68 19 -12 19 C-12 18.01 -12 17.02 -12 16 C-11.34 16 -10.68 16 -10 16 C-9.7525 15.030625 -9.505 14.06125 -9.25 13.0625 C-8.8375 12.051875 -8.425 11.04125 -8 10 C-5.875 9.125 -5.875 9.125 -4 9 C-3.896875 8.236875 -3.79375 7.47375 -3.6875 6.6875 C-2.95012228 3.80502345 -2.19029986 2.90460858 0 1 C0 0.67 0 0.34 0 0 Z " fill="#AC154D" transform="translate(85,83)"/>
<path d="M0 0 C0.33 0 0.66 0 1 0 C2.78457962 71.05094924 2.78457962 71.05094924 1 91 C0.67 91 0.34 91 0 91 C-0.75970475 84.79781388 -1.20081116 78.68596109 -1.3515625 72.44140625 C-1.37471527 71.57104233 -1.39786804 70.70067841 -1.42172241 69.80393982 C-1.46896402 67.98303074 -1.51424065 66.1620697 -1.55761719 64.34106445 C-1.62541185 61.54551724 -1.70301269 58.75035041 -1.78125 55.95507812 C-1.82611015 54.17970229 -1.87040167 52.40431198 -1.9140625 50.62890625 C-1.93796051 49.79251114 -1.96185852 48.95611603 -1.98648071 48.09437561 C-2.1146951 42.2293902 -2.1146951 42.2293902 -1 40 C-0.84266751 37.01236645 -0.74138585 34.04458849 -0.68359375 31.0546875 C-0.66281265 30.1696756 -0.64203156 29.2846637 -0.62062073 28.37283325 C-0.55513402 25.54030259 -0.49624438 22.70767775 -0.4375 19.875 C-0.39431394 17.95702143 -0.35069963 16.03905246 -0.30664062 14.12109375 C-0.19945353 9.41415949 -0.0981836 4.70713033 0 0 Z " fill="#B70A45" transform="translate(221,268)"/>
<path d="M0 0 C0.33 0 0.66 0 1 0 C1.01030746 0.95783386 1.02061493 1.91566772 1.03123474 2.90252686 C1.12986751 12.02035657 1.23266852 21.1381315 1.33933926 30.25587082 C1.39402431 34.94106858 1.44734395 39.62627283 1.49731445 44.31152344 C1.54577741 48.8503575 1.59812534 53.38913296 1.65294075 57.92789459 C1.67300086 59.64182282 1.69176339 61.35576684 1.70907402 63.06972504 C1.81210502 73.17102681 2.08870053 83.23742632 2.69028378 93.32273483 C3.0364684 99.38307069 2.85764266 105.22469537 2.0625 111.25 C1.96259766 112.11367188 1.86269531 112.97734375 1.75976562 113.8671875 C1.52106316 115.91320866 1.26298727 117.95695836 1 120 C0.67 120 0.34 120 0 120 C-0.16820551 118.06263299 -0.33451095 116.12510094 -0.5 114.1875 C-0.5928125 113.10855469 -0.685625 112.02960938 -0.78125 110.91796875 C-1.03832622 107.48875555 -0.99487458 104.08875249 -0.96203613 100.6530304 C-0.95362198 99.76542023 -0.94520782 98.87781006 -0.9365387 97.96330261 C-0.92718796 96.99226089 -0.91783722 96.02121918 -0.90820312 95.02075195 C-0.89844955 93.99618896 -0.88869598 92.97162598 -0.87864685 91.91601562 C-0.84631664 88.52343619 -0.81378393 85.13085873 -0.78125 81.73828125 C-0.75881731 79.38844311 -0.73639722 77.03860485 -0.71398926 74.68876648 C-0.65493159 68.49917482 -0.59570235 62.3095848 -0.53643799 56.11999512 C-0.47601175 49.80590919 -0.41574694 43.49182172 -0.35546875 37.17773438 C-0.23713761 24.78515473 -0.1186253 12.39257683 0 0 Z " fill="#C4064A" transform="translate(220,160)"/>
<path d="M0 0 C13.78034396 20.67051593 9.86735517 59.88975311 5.43359375 82.9453125 C5.29050781 83.62335938 5.14742188 84.30140625 5 85 C4.67 85 4.34 85 4 85 C3.87340067 77.53063973 3.87340067 77.53063973 4.4934082 74.93188477 C5.19049424 70.89752031 5.18258803 66.93895583 5.203125 62.8515625 C5.20882507 61.96197845 5.21452515 61.07239441 5.22039795 60.15585327 C5.22982982 58.27139465 5.23637472 56.38691968 5.24023438 54.50244141 C5.2498497 51.66928723 5.2808521 48.83688759 5.3125 46.00390625 C5.38720486 33.22516222 4.65761071 21.07027143 0 9 C-0.66 8.67 -1.32 8.34 -2 8 C-1.34 5.36 -0.68 2.72 0 0 Z " fill="#A8144C" transform="translate(355,139)"/>
<path d="M0 0 C0.33 0.66 0.66 1.32 1 2 C0.13375 3.175625 0.13375 3.175625 -0.75 4.375 C-4.69403599 10.27706804 -6.87625803 17.27481708 -9 24 C-9.99 24 -10.98 24 -12 24 C-11.67 24.99 -11.34 25.98 -11 27 C-11.99 27.33 -12.98 27.66 -14 28 C-15.60829079 29.94933533 -15.60829079 29.94933533 -17.0625 32.3125 C-17.82240234 33.48232422 -17.82240234 33.48232422 -18.59765625 34.67578125 C-20.02308948 36.94571623 -20.02308948 36.94571623 -21.0546875 39.2578125 C-21.36664063 39.83273438 -21.67859375 40.40765625 -22 41 C-23.32594105 41.36162029 -24.65938457 41.69728039 -26 42 C-26.33 42.99 -26.66 43.98 -27 45 C-27.33 44.34 -27.66 43.68 -28 43 C-27.05053711 41.08666992 -27.05053711 41.08666992 -25.52734375 38.73046875 C-24.96354004 37.85084473 -24.39973633 36.9712207 -23.81884766 36.06494141 C-23.19800293 35.11538574 -22.5771582 34.16583008 -21.9375 33.1875 C-21.31149902 32.21731934 -20.68549805 31.24713867 -20.04052734 30.24755859 C-13.46708212 20.09485523 -6.7554316 10.03229691 0 0 Z " fill="#DCBBC6" transform="translate(169,152)"/>
<path d="M0 0 C1.32 0.66 2.64 1.32 4 2 C4 1.34 4 0.68 4 0 C5.32 0.33 6.64 0.66 8 1 C0.55207103 12.82213475 -6.88459793 24.62126164 -15 36 C-16.09658936 32.71023192 -15.79953138 31.28696233 -15 28 C-14.01 28 -13.02 28 -12 28 C-12 27.01 -12 26.02 -12 25 C-11.34 25 -10.68 25 -10 25 C-8.58622659 22.36095629 -7.62759865 19.92879371 -7 17 C-6.34 17 -5.68 17 -5 17 C-4.34 14.36 -3.68 11.72 -3 9 C-2.34 9 -1.68 9 -1 9 C-1.66 6.69 -2.32 4.38 -3 2 C-2.01 1.34 -1.02 0.68 0 0 Z " fill="#CF0A4F" transform="translate(187,112)"/>
<path d="M0 0 C0 0.66 0 1.32 0 2 C-1.58383488 1.88152416 -3.16704288 1.75467728 -4.75 1.625 C-5.63171875 1.55539063 -6.5134375 1.48578125 -7.421875 1.4140625 C-9.46880102 1.17719115 -11.51392148 0.90308683 -13.53881836 0.52124023 C-21.76855959 -1.02999108 -29.70099182 -1.27028209 -38.0625 -1.1875 C-39.42911609 -1.18063269 -40.79573404 -1.17412551 -42.16235352 -1.16796875 C-52.46187797 -1.10141508 -62.72699319 -0.73285144 -73 0 C-73 -0.33 -73 -0.66 -73 -1 C-48.89864459 -5.40148866 -23.95598914 -5.49809587 0 0 Z " fill="#AA194E" transform="translate(230,21)"/>
<path d="M0 0 C1.03125 0.804375 2.0625 1.60875 3.125 2.4375 C18.52513747 13.94023889 34.86269468 22.7079519 53 29 C53 29.33 53 29.66 53 30 C47.9697924 29.47462276 42.98114761 28.89405214 38 28 C38 27.34 38 26.68 38 26 C37.2884375 25.72027344 36.576875 25.44054687 35.84375 25.15234375 C33.03281338 24.01329663 30.26485065 22.80901272 27.5 21.5625 C26.5821875 21.15128906 25.664375 20.74007813 24.71875 20.31640625 C22.02304969 19.01116055 19.47863084 17.68385247 17 16 C17 15.34 17 14.68 17 14 C16.40670898 13.87995605 15.81341797 13.75991211 15.20214844 13.63623047 C11.70427884 12.62564863 9.08573449 10.32503137 6.25 8.125 C5.64800781 7.67769531 5.04601562 7.23039062 4.42578125 6.76953125 C2.88941682 5.58851641 1.43707376 4.30001182 0 3 C0 2.01 0 1.02 0 0 Z " fill="#A6174C" transform="translate(95,299)"/>
<path d="M0 0 C0 0.66 0 1.32 0 2 C-2.93666226 2.67055285 -5.87422359 3.33659053 -8.8125 4 C-9.64587891 4.19078125 -10.47925781 4.3815625 -11.33789062 4.578125 C-12.14033203 4.75859375 -12.94277344 4.9390625 -13.76953125 5.125 C-14.50792236 5.29257812 -15.24631348 5.46015625 -16.00708008 5.6328125 C-18 6 -18 6 -21 6 C-21 6.66 -21 7.32 -21 8 C-25.97019446 12.26016668 -29.42583351 13.25285256 -36 13 C-36 13.66 -36 14.32 -36 15 C-36.66 15 -37.32 15 -38 15 C-38 15.66 -38 16.32 -38 17 C-42.95 17.495 -42.95 17.495 -48 18 C-45.47545736 15.47545736 -44.35445499 14.50067723 -41.296875 13.1328125 C-40.57097168 12.80684082 -39.84506836 12.48086914 -39.09716797 12.14501953 C-37.93531982 11.64010986 -37.93531982 11.64010986 -36.75 11.125 C-35.55141357 10.5988208 -35.55141357 10.5988208 -34.32861328 10.06201172 C-11.00787716 0 -11.00787716 0 0 0 Z " fill="#BB1B53" transform="translate(156,21)"/>
<path d="M0 0 C2.24824885 2.84646711 3.96781502 5.71519587 5.625 8.9375 C10.81549694 18.5297419 17.08652843 27.14050109 24.125 35.4375 C24.60340332 36.0044458 25.08180664 36.5713916 25.57470703 37.15551758 C29.0637993 41.18015876 32.87710107 44.63314317 37 48 C35.02 48.495 35.02 48.495 33 49 C32.2575 48.0925 31.515 47.185 30.75 46.25 C29.12780002 44.2904194 27.51749599 42.53053664 25.6875 40.75 C24 39 24 39 24 37 C23.41734375 36.7628125 22.8346875 36.525625 22.234375 36.28125 C19.52447163 34.7273194 18.13469198 32.98070569 16.25 30.5 C15.63640625 29.7059375 15.0228125 28.911875 14.390625 28.09375 C13 26 13 26 13 24 C12.34 24 11.68 24 11 24 C9 21 9 21 9 17 C8.01 16.67 7.02 16.34 6 16 C4.39453125 13.41796875 4.39453125 13.41796875 2.8125 10.1875 C2.28269531 9.12917969 1.75289062 8.07085937 1.20703125 6.98046875 C0 4 0 4 0 0 Z " fill="#A81448" transform="translate(58,250)"/>
<path d="M0 0 C0.93475763 2.98446235 1.13339442 3.69566638 -0.1796875 6.69140625 C-0.73914063 7.63886719 -1.29859375 8.58632813 -1.875 9.5625 C-5.08213918 14.92051262 -5.08213918 14.92051262 -6 21 C-6.639375 21.226875 -7.27875 21.45375 -7.9375 21.6875 C-10.27193661 22.85250896 -10.27193661 22.85250896 -10.75 25.625 C-10.8325 26.40875 -10.915 27.1925 -11 28 C-11.99 28 -12.98 28 -14 28 C-12.68 28.66 -11.36 29.32 -10 30 C-10.99 30.33 -11.98 30.66 -13 31 C-12.67 31.99 -12.34 32.98 -12 34 C-12.99 34.495 -12.99 34.495 -14 35 C-16 33 -16 33 -17 31 C-17.99 30.67 -18.98 30.34 -20 30 C-19.47792969 29.42636719 -18.95585937 28.85273438 -18.41796875 28.26171875 C-10.92349265 19.61222707 -5.5147012 9.98423375 0 0 Z " fill="#B7134C" transform="translate(322,253)"/>
<path d="M0 0 C0.33 0 0.66 0 1 0 C1.19794256 6.18020673 1.08673716 11.13105174 -1 17 C-0.87625 18.8871875 -0.87625 18.8871875 -0.75 20.8125 C-0.59810272 25.49451014 -2.77165252 28.14517577 -5.46484375 31.8125 C-7.51634019 34.73575193 -8.72660208 37.67501653 -10 41 C-10.66 41 -11.32 41 -12 41 C-10.52622647 36.54928234 -9.04214747 32.1033356 -7.5 27.67578125 C-4.33831236 18.52200192 -1.74919442 9.54385024 0 0 Z " fill="#B4144D" transform="translate(335,212)"/>
<path d="M0 0 C0.495 0.99 0.495 0.99 1 2 C-8.36451449 15.73191278 -19.16431093 27.37034807 -31 39 C-31 36 -31 36 -30 33 C-29.236875 32.54625 -28.47375 32.0925 -27.6875 31.625 C-23.67868026 29.20106248 -21.56555112 25.84832669 -19 22 C-18.34 22 -17.68 22 -17 22 C-15.26121999 20.16468615 -15.26121999 20.16468615 -13.4375 17.75 C-12.73496094 16.85023438 -12.03242188 15.95046875 -11.30859375 15.0234375 C-7.50431421 10.04118307 -3.73623653 5.03354088 0 0 Z " fill="#A60E46" transform="translate(335,280)"/>
<path d="M0 0 C0 3.93656323 -1.27404693 4.69143789 -3.9375 7.5 C-7.12975923 10.84072686 -7.12975923 10.84072686 -9 15 C-9.99 15.495 -9.99 15.495 -11 16 C-11.12375 16.639375 -11.2475 17.27875 -11.375 17.9375 C-11.58125 18.618125 -11.7875 19.29875 -12 20 C-13.33333333 20.66666667 -14.66666667 21.33333333 -16 22 C-16.80528889 24.05000871 -16.80528889 24.05000871 -17 26 C-18.32 26.33 -19.64 26.66 -21 27 C-21 27.66 -21 28.32 -21 29 C-21.66 29 -22.32 29 -23 29 C-17.92538101 17.88292232 -8.33541498 8.74442857 0 0 Z " fill="#AA2B54" transform="translate(72,64)"/>
<path d="M0 0 C5.52960821 0.61440091 10.49204678 1.9555035 15.75 3.75 C16.53552246 4.01441895 17.32104492 4.27883789 18.13037109 4.55126953 C24.26898034 6.65798879 30.18654537 9.10607765 36 12 C32.71287513 13.11078967 30.99802113 12.91653286 27.8125 11.6015625 C27.03132813 11.28703125 26.25015625 10.9725 25.4453125 10.6484375 C24.63835937 10.31070313 23.83140625 9.97296875 23 9.625 C21.39666281 8.96932217 19.79252171 8.31560597 18.1875 7.6640625 C17.47980469 7.36967285 16.77210938 7.0752832 16.04296875 6.77197266 C14.04250058 6.01605961 12.08058579 5.48538088 10 5 C8.247531 4.48753558 6.49758654 3.96637488 4.75 3.4375 C3.85796875 3.16808594 2.9659375 2.89867187 2.046875 2.62109375 C1.37140625 2.41613281 0.6959375 2.21117187 0 2 C0 1.34 0 0.68 0 0 Z " fill="#A81C51" transform="translate(231,22)"/>
<path d="M0 0 C0 0.33 0 0.66 0 1 C-0.57741943 1.06469482 -1.15483887 1.12938965 -1.74975586 1.19604492 C-13.36835714 2.5366085 -24.42813324 4.29963742 -35.56640625 7.9140625 C-38.38559667 8.80568359 -41.09173697 9.49761291 -44 10 C-35.01282885 -1.10179966 -12.8378561 -0.57842656 0 0 Z " fill="#B01E56" transform="translate(181,43)"/>
<path d="M0 0 C0.33 0 0.66 0 1 0 C1.25661005 5.35413407 0.40784497 9.7296761 -1.3125 14.75 C-1.77358998 16.15837879 -2.23322082 17.5672361 -2.69140625 18.9765625 C-3.02809326 20.00185059 -3.02809326 20.00185059 -3.37158203 21.04785156 C-5.36922073 27.25341452 -7.12581648 33.53104194 -8 40 C-8.33 40 -8.66 40 -9 40 C-9.4375284 33.22317123 -7.81402869 27.1109122 -6.1875 20.5625 C-5.92646484 19.46873047 -5.66542969 18.37496094 -5.39648438 17.24804688 C-3.95008653 11.31603004 -2.29046293 5.66081379 0 0 Z " fill="#A82052" transform="translate(30,128)"/>
<path d="M0 0 C4.35871466 1.32082262 7.07618422 3.62931979 10.3515625 6.66015625 C12.07311195 8.22046555 12.07311195 8.22046555 15 9 C15 9.66 15 10.32 15 11 C16.32 11 17.64 11 19 11 C20.36531368 12.30056684 21.69480489 13.63911011 23 15 C24.86205808 16.10090562 26.76049238 17.14220038 28.6875 18.125 C33.89323843 20.78647687 33.89323843 20.78647687 35 23 C30.24176219 21.60521884 26.15279722 19.5635957 21.9375 17 C21.29280762 16.61062256 20.64811523 16.22124512 19.98388672 15.82006836 C2.53023553 5.06047106 2.53023553 5.06047106 0 0 Z " fill="#A61548" transform="translate(81,320)"/>
<path d="M0 0 C0.66 0.33 1.32 0.66 2 1 C1.28714844 2.09957031 0.57429688 3.19914063 -0.16015625 4.33203125 C-5.47396746 12.53348057 -10.77416281 20.7421071 -16 29 C-17.12737713 25.61786861 -17.06292002 24.35228621 -16 21 C-14.70766393 19.62689293 -13.37562854 18.28965176 -12 17 C-11.67 16.01 -11.34 15.02 -11 14 C-10.34 14 -9.68 14 -9 14 C-9 13.01 -9 12.02 -9 11 C-8.01 11 -7.02 11 -6 11 C-5.83177734 10.12601563 -5.83177734 10.12601563 -5.66015625 9.234375 C-4.93999124 6.79689343 -3.95620605 5.2749414 -2.4375 3.25 C-1.98246094 2.63640625 -1.52742187 2.0228125 -1.05859375 1.390625 C-0.70925781 0.93171875 -0.35992187 0.4728125 0 0 Z " fill="#B6275A" transform="translate(156,169)"/>
<path d="M0 0 C0.66 0 1.32 0 2 0 C1 20.53191489 1 20.53191489 0 30 C-0.66 29.67 -1.32 29.34 -2 29 C-2.19538118 19.13325025 -2.38222795 9.65653116 0 0 Z " fill="#B3154F" transform="translate(45,164)"/>
<path d="M0 0 C1.0828125 0.37125 1.0828125 0.37125 2.1875 0.75 C1.1875 3.75 1.1875 3.75 -0.75 4.8125 C-1.430625 5.121875 -2.11125 5.43125 -2.8125 5.75 C-3.4725 6.41 -4.1325 7.07 -4.8125 7.75 C-4.4939823 9.85820797 -4.4939823 9.85820797 -3.8125 11.75 C-5.4625 12.41 -7.1125 13.07 -8.8125 13.75 C-9.4725 12.43 -10.1325 11.11 -10.8125 9.75 C-10.3175 9.13125 -9.8225 8.5125 -9.3125 7.875 C-7.62027227 5.91119096 -7.62027227 5.91119096 -7.8125 3.75 C-3.73086735 -0.33163265 -3.73086735 -0.33163265 0 0 Z " fill="#CAC7C8" transform="translate(180.8125,145.25)"/>
<path d="M0 0 C0.33 0 0.66 0 1 0 C1 5.94 1 11.88 1 18 C0.34 17.67 -0.32 17.34 -1 17 C-1.60107745 13.68273295 -1.74433485 10.36625785 -2 7 C-6.95 14.425 -6.95 14.425 -12 22 C-12.33 21.34 -12.66 20.68 -13 20 C-11.93603516 17.93701172 -11.93603516 17.93701172 -10.2890625 15.4296875 C-9.70382813 14.53378906 -9.11859375 13.63789062 -8.515625 12.71484375 C-7.89171875 11.77769531 -7.2678125 10.84054688 -6.625 9.875 C-6.00882813 8.93011719 -5.39265625 7.98523438 -4.7578125 7.01171875 C-1.40534998 1.91685794 -1.40534998 1.91685794 0 0 Z " fill="#EEA9C3" transform="translate(200,104)"/>
<path d="M0 0 C0.99 0 1.98 0 3 0 C3 0.99 3 1.98 3 3 C4.32 2.34 5.64 1.68 7 1 C5.57497833 4.90455937 3.73347873 8.24835962 1.5 11.75 C0.8915625 12.71421875 0.283125 13.6784375 -0.34375 14.671875 C-2 17 -2 17 -4 18 C-3.690625 17.278125 -3.38125 16.55625 -3.0625 15.8125 C-1.53327591 11.76455389 -0.60965886 9.17102342 -2 5 C-1.0625 2.3125 -1.0625 2.3125 0 0 Z " fill="#BBB7B8" transform="translate(161,171)"/>
<path d="M0 0 C0.99 0.33 1.98 0.66 3 1 C-1.62 7.93 -6.24 14.86 -11 22 C-12.09658936 18.71023192 -11.79953138 17.28696233 -11 14 C-10.01 14 -9.02 14 -8 14 C-8 13.01 -8 12.02 -8 11 C-7.34 11 -6.68 11 -6 11 C-4.58622659 8.36095629 -3.62759865 5.92879371 -3 3 C-2.34 3 -1.68 3 -1 3 C-0.67 2.01 -0.34 1.02 0 0 Z " fill="#BB285C" transform="translate(183,126)"/>
<path d="M0 0 C0.66 0 1.32 0 2 0 C3.55078125 1.79296875 3.55078125 1.79296875 5.3125 4.1875 C9.54287532 9.76985094 14.21181985 14.27778193 19.64453125 18.66796875 C20.09183594 19.10753906 20.53914063 19.54710937 21 20 C21 20.66 21 21.32 21 22 C21.99 22.33 22.98 22.66 24 23 C24.33 23.99 24.66 24.98 25 26 C21.71893495 24.56476266 19.54874414 22.79474921 17.03125 20.26171875 C16.29519531 19.52373047 15.55914062 18.78574219 14.80078125 18.02539062 C13.66189453 16.86813477 13.66189453 16.86813477 12.5 15.6875 C11.74074219 14.92759766 10.98148438 14.16769531 10.19921875 13.38476562 C0 3.10516774 0 3.10516774 0 0 Z " fill="#AC144B" transform="translate(56,294)"/>
<path d="M0 0 C0.78821819 2.29543427 1.13558044 3.58008982 0.37915039 5.92285156 C0.03875732 6.5722168 -0.30163574 7.22158203 -0.65234375 7.890625 C-1.01650391 8.59960938 -1.38066406 9.30859375 -1.75585938 10.0390625 C-2.14580078 10.76867187 -2.53574219 11.49828125 -2.9375 12.25 C-3.32357422 12.99507812 -3.70964844 13.74015625 -4.10742188 14.5078125 C-5.06090166 16.34414394 -6.02905677 18.17284207 -7 20 C-6.34 20.33 -5.68 20.66 -5 21 C-6.32 21.33 -7.64 21.66 -9 22 C-9.33 23.65 -9.66 25.3 -10 27 C-10.66 26.67 -11.32 26.34 -12 26 C-10.08321013 19.56404235 -7.54251139 13.81539951 -4.3125 7.9375 C-3.89677734 7.16728516 -3.48105469 6.39707031 -3.05273438 5.60351562 C-2.0415352 3.732216 -1.02168617 1.86559466 0 0 Z " fill="#AD1C4D" transform="translate(43,101)"/>
<path d="M0 0 C0.66 0 1.32 0 2 0 C3.35386936 1.65002828 4.68678142 3.3174387 6 5 C6.66 5.33 7.32 5.66 8 6 C8 6.66 8 7.32 8 8 C8.66 8.33 9.32 8.66 10 9 C9.01 9.495 9.01 9.495 8 10 C8.28875 10.59167969 8.5775 11.18335937 8.875 11.79296875 C12.56239016 19.64147627 12.56239016 19.64147627 12 24 C9.77023286 21.20648042 8.18262435 18.49984636 6.73828125 15.234375 C6.34189453 14.34492188 5.94550781 13.45546875 5.53710938 12.5390625 C4.93092773 11.15847656 4.93092773 11.15847656 4.3125 9.75 C3.89677734 8.81414062 3.48105469 7.87828125 3.05273438 6.9140625 C2.03060863 4.61134244 1.01321156 2.30665285 0 0 Z " fill="#AE1650" transform="translate(317,114)"/>
<path d="M0 0 C0 0.66 0 1.32 0 2 C-2.93666226 2.67055285 -5.87422359 3.33659053 -8.8125 4 C-9.64587891 4.19078125 -10.47925781 4.3815625 -11.33789062 4.578125 C-12.14033203 4.75859375 -12.94277344 4.9390625 -13.76953125 5.125 C-14.50792236 5.29257812 -15.24631348 5.46015625 -16.00708008 5.6328125 C-18 6 -18 6 -21 6 C-21 6.66 -21 7.32 -21 8 C-25.43076923 10.09230769 -25.43076923 10.09230769 -28.3125 9.625 C-28.869375 9.41875 -29.42625 9.2125 -30 9 C-26.73725386 6.82483591 -23.50259835 5.69692288 -19.8125 4.5 C-19.13920654 4.27932861 -18.46591309 4.05865723 -17.7722168 3.83129883 C-5.95298097 0 -5.95298097 0 0 0 Z " fill="#AE285A" transform="translate(156,21)"/>
<path d="M0 0 C0.33 0 0.66 0 1 0 C1.33 7.26 1.66 14.52 2 22 C2.66 22.33 3.32 22.66 4 23 C4 23.66 4 24.32 4 25 C3.34 25 2.68 25 2 25 C2.33 25.99 2.66 26.98 3 28 C2.34 28 1.68 28 1 28 C0.01 31.465 0.01 31.465 -1 35 C-1.33 35 -1.66 35 -2 35 C-2.125 28.375 -2.125 28.375 -1 25 C-0.85060226 23.08234406 -0.75189717 21.16053478 -0.68359375 19.23828125 C-0.64169922 18.12001953 -0.59980469 17.00175781 -0.55664062 15.84960938 C-0.51732422 14.68236328 -0.47800781 13.51511719 -0.4375 12.3125 C-0.39431641 11.13365234 -0.35113281 9.95480469 -0.30664062 8.74023438 C-0.20048824 5.82694117 -0.09843758 2.91356243 0 0 Z " fill="#B70C4A" transform="translate(338,176)"/>
<path d="M0 0 C0.87785156 0.16435547 0.87785156 0.16435547 1.7734375 0.33203125 C10.82956523 2.00455935 19.91396736 3.50065468 29 5 C29 5.33 29 5.66 29 6 C19.52298844 6.35391329 9.98680878 6.53364811 1 3 C0.67 2.01 0.34 1.02 0 0 Z " fill="#B01A50" transform="translate(148,329)"/>
<path d="M0 0 C0.33 0 0.66 0 1 0 C1.25394531 1.12277344 1.50789063 2.24554688 1.76953125 3.40234375 C3.91228544 12.99419364 3.91228544 12.99419364 6.8125 22.375 C8 26 8 26 7 29 C0.95081297 22.10150018 -0.54522354 10.54687423 -0.140625 1.66015625 C-0.07101563 0.83837891 -0.07101563 0.83837891 0 0 Z " fill="#AA1C4E" transform="translate(47,214)"/>
<path d="M0 0 C0.33 0.66 0.66 1.32 1 2 C0.34 3.32 -0.32 4.64 -1 6 C9.23 6.33 19.46 6.66 30 7 C30 7.33 30 7.66 30 8 C6.21122564 9.40027356 6.21122564 9.40027356 -4 8 C-3.27633685 4.65569263 -2.18284504 2.65737657 0 0 Z " fill="#A60B46" transform="translate(109,190)"/>
<path d="M0 0 C10.54940902 1.44918026 19.86726418 6.76845252 29 12 C25.54786054 13.1551408 25.05691182 13.0240709 21.42578125 11.48828125 C20.04874772 10.7743629 18.67786965 10.04847993 17.3125 9.3125 C15.88227648 8.56753784 14.45129038 7.82403781 13.01953125 7.08203125 C12.33068848 6.72189941 11.6418457 6.36176758 10.93212891 5.99072266 C7.35930039 4.15871127 3.68890681 2.58096006 0 1 C0 0.67 0 0.34 0 0 Z " fill="#AB174E" transform="translate(239,50)"/>
<path d="M0 0 C0.99 0.33 1.98 0.66 3 1 C0.54625122 5.78481013 0.54625122 5.78481013 -2.0625 6.8125 C-4 7 -4 7 -6 7 C-6.928125 7.7734375 -6.928125 7.7734375 -7.875 8.5625 C-10 10 -10 10 -12.1328125 9.58984375 C-12.74898438 9.39519531 -13.36515625 9.20054688 -14 9 C-11.73692309 7.46636928 -9.46583175 5.94815741 -7.1875 4.4375 C-6.54490234 3.99986328 -5.90230469 3.56222656 -5.24023438 3.11132812 C-3.5432482 1.99465846 -1.77422942 0.98935494 0 0 Z " fill="#BA1652" transform="translate(106,39)"/>
<path d="M0 0 C0.66 0.33 1.32 0.66 2 1 C1.3503125 1.5878125 1.3503125 1.5878125 0.6875 2.1875 C-1.12176923 3.94755595 -1.12176923 3.94755595 -2.125 6.375 C-4.88280784 10.23593097 -8.67331542 12.15802378 -13 14 C-13.99 14 -14.98 14 -16 14 C-11.05590198 8.7697484 -5.76575494 4.30143623 0 0 Z " fill="#AF1D50" transform="translate(90,49)"/>
<path d="M0 0 C0 3.34780734 -0.5205867 4.17638026 -2.30078125 6.90625 C-2.78353516 7.65003906 -3.26628906 8.39382812 -3.76367188 9.16015625 C-4.27478516 9.93230469 -4.78589844 10.70445312 -5.3125 11.5 C-5.81201172 12.27214844 -6.31152344 13.04429687 -6.82617188 13.83984375 C-9.01950968 17.19230975 -11.07394711 20.23975498 -14 23 C-13.46563423 18.40275795 -11.59274282 15.61200841 -8.9375 11.875 C-5.80933317 7.8206904 -5.80933317 7.8206904 -5 3 C-2.5 1.3125 -2.5 1.3125 0 0 Z " fill="#B3AAB0" transform="translate(199,123)"/>
<path d="M0 0 C0.33 0 0.66 0 1 0 C1 3.96 1 7.92 1 12 C-0.32 12.33 -1.64 12.66 -3 13 C-3.99 13.495 -3.99 13.495 -5 14 C-5.73211081 8.14311354 -3.48028193 4.4958396 0 0 Z " fill="#CAC3C6" transform="translate(198,109)"/>
<path d="M0 0 C5.4356767 1.08713534 8.26984557 1.75534151 12 6 C12.9075 6.53625 13.815 7.0725 14.75 7.625 C15.4925 8.07875 16.235 8.5325 17 9 C17 9.66 17 10.32 17 11 C17.66 11 18.32 11 19 11 C19 11.66 19 12.32 19 13 C14.84424935 12.41919629 12.20909714 10.13038666 8.9375 7.625 C7.89464844 6.83351563 6.85179687 6.04203125 5.77734375 5.2265625 C3.69858745 3.56004901 1.81082174 1.94240395 0 0 Z " fill="#AE154D" transform="translate(268,64)"/>
<path d="M0 0 C0.66 0.33 1.32 0.66 2 1 C-3.27855799 7.61170916 -9.34707654 12.80277951 -16 18 C-16.66 17.67 -17.32 17.34 -18 17 C-17.11957031 16.19175781 -16.23914063 15.38351562 -15.33203125 14.55078125 C-14.15880226 13.47141058 -12.98562809 12.39198033 -11.8125 11.3125 C-11.23435547 10.78205078 -10.65621094 10.25160156 -10.06054688 9.70507812 C-6.6269523 6.5430673 -3.27589497 3.32524932 0 0 Z " fill="#A31B4C" transform="translate(301,285)"/>
<path d="M0 0 C0.33 0.99 0.66 1.98 1 3 C0.0390625 4.578125 0.0390625 4.578125 -1.375 6.25 C-4.16249189 9.87142298 -4.72318933 12.47875905 -5 17 C-6.65 17.33 -8.3 17.66 -10 18 C-10.33 18.99 -10.66 19.98 -11 21 C-11.33 20.34 -11.66 19.68 -12 19 C-11.01196289 17.02880859 -11.01196289 17.02880859 -9.47265625 14.6484375 C-8.92802734 13.79765625 -8.38339844 12.946875 -7.82226562 12.0703125 C-6.95118164 10.73613281 -6.95118164 10.73613281 -6.0625 9.375 C-5.48564453 8.4778125 -4.90878906 7.580625 -4.31445312 6.65625 C-2.88339217 4.43278339 -1.4450185 2.21441113 0 0 Z " fill="#E6B4C6" transform="translate(153,176)"/>
<path d="M0 0 C-2.78394043 1.70050657 -5.57827525 3.38311625 -8.375 5.0625 C-9.1690625 5.54783203 -9.963125 6.03316406 -10.78125 6.53320312 C-11.54179688 6.98759766 -12.30234375 7.44199219 -13.0859375 7.91015625 C-13.7876709 8.33433838 -14.4894043 8.75852051 -15.21240234 9.19555664 C-16.09726318 9.5937561 -16.09726318 9.5937561 -17 10 C-17.66 9.67 -18.32 9.34 -19 9 C-18.34 8.01 -17.68 7.02 -17 6 C-16.01 6 -15.02 6 -14 6 C-13.76152344 5.37738281 -13.52304688 4.75476562 -13.27734375 4.11328125 C-11.6638088 1.44379377 -10.50460997 1.09090651 -7.5625 0.1875 C-6.78003906 -0.06644531 -5.99757813 -0.32039063 -5.19140625 -0.58203125 C-3 -1 -3 -1 0 0 Z " fill="#AF144B" transform="translate(129,57)"/>
<path d="M0 0 C0.66 0.66 1.32 1.32 2 2 C0.21240271 4.79429212 -1.58076575 7.58496575 -3.375 10.375 C-3.88289062 11.1690625 -4.39078125 11.963125 -4.9140625 12.78125 C-5.40390625 13.54179687 -5.89375 14.30234375 -6.3984375 15.0859375 C-6.84880371 15.7876709 -7.29916992 16.4894043 -7.76318359 17.21240234 C-9 19 -9 19 -11 21 C-10.39254603 16.14036821 -8.27241033 12.2594482 -6 8 C-5.34 8 -4.68 8 -4 8 C-3.566875 6.8553125 -3.566875 6.8553125 -3.125 5.6875 C-2 3 -2 3 0 0 Z " fill="#B62D5D" transform="translate(169,148)"/>
<path d="M0 0 C1.23922223 3.71766668 0.57018942 5.43889537 -0.4375 9.1875 C-0.72496094 10.27417969 -1.01242188 11.36085937 -1.30859375 12.48046875 C-1.65083984 13.72763672 -1.65083984 13.72763672 -2 15 C-2.33 15 -2.66 15 -3 15 C-3 13.02 -3 11.04 -3 9 C-3.99 8.67 -4.98 8.34 -6 8 C-5.34 8 -4.68 8 -4 8 C-4 7.01 -4 6.02 -4 5 C-4.99 5.495 -4.99 5.495 -6 6 C-5.67 5.01 -5.34 4.02 -5 3 C-4.34 3 -3.68 3 -3 3 C-3 2.34 -3 1.68 -3 1 C-2.01 0.67 -1.02 0.34 0 0 Z " fill="#C0104F" transform="translate(55,129)"/>
<path d="M0 0 C7.56170904 4.69742532 14.25588566 10.22585134 21 16 C20.34 16.33 19.68 16.66 19 17 C14.89390161 15.00243862 12.19945799 12.19945799 9 9 C6.62424672 7.14506953 4.22077498 5.33698127 1.79296875 3.55078125 C1.20128906 3.03902344 0.60960937 2.52726562 0 2 C0 1.34 0 0.68 0 0 Z " fill="#A1164B" transform="translate(288,47)"/>
<path d="M0 0 C5.37862254 4.88965685 10.68244058 11.04732175 13 18 C12.34 18.33 11.68 18.66 11 19 C10.4225 17.96875 9.845 16.9375 9.25 15.875 C7.29508978 12.47123788 5.31939841 9.1698445 3 6 C2.34 6 1.68 6 1 6 C0.67 4.02 0.34 2.04 0 0 Z " fill="#AB1449" transform="translate(325,82)"/>
<path d="M0 0 C1.19799449 4.14659373 0.8896192 7.99369047 0.5625 12.25 C0.48418945 13.36761719 0.48418945 13.36761719 0.40429688 14.5078125 C0.2751783 16.33894861 0.13834886 18.16953813 0 20 C-0.66 20 -1.32 20 -2 20 C-2.05379226 17.04142591 -2.09357093 14.08382279 -2.125 11.125 C-2.14175781 10.28324219 -2.15851563 9.44148438 -2.17578125 8.57421875 C-2.18222656 7.76855469 -2.18867188 6.96289062 -2.1953125 6.1328125 C-2.21102295 5.01737061 -2.21102295 5.01737061 -2.22705078 3.87939453 C-2 2 -2 2 0 0 Z " fill="#B61850" transform="translate(203,102)"/>
<path d="M0 0 C0.33 0.66 0.66 1.32 1 2 C0.195625 2.61875 -0.60875 3.2375 -1.4375 3.875 C-4.03874519 5.74164041 -4.03874519 5.74164041 -5 8 C-6.6635479 8.67441131 -8.33066942 9.3400321 -10 10 C-10.680625 10.556875 -11.36125 11.11375 -12.0625 11.6875 C-12.701875 12.120625 -13.34125 12.55375 -14 13 C-16.12109375 12.58203125 -16.12109375 12.58203125 -18 12 C-17.28714844 11.55269531 -16.57429688 11.10539062 -15.83984375 10.64453125 C-10.44331467 7.23810845 -5.14638875 3.77401842 0 0 Z " fill="#AA2051" transform="translate(282,303)"/>
<path d="M0 0 C1.8125 0.5 1.8125 0.5 4 2 C5.34639364 4.56249113 6.36972349 7.17259135 7 10 C6.67 10.66 6.34 11.32 6 12 C3.03 8.7 0.06 5.4 -3 2 C-2.01 1.34 -1.02 0.68 0 0 Z " fill="#B4124C" transform="translate(298,85)"/>
<path d="M0 0 C0.66 0.99 1.32 1.98 2 3 C0.7934375 3.61875 0.7934375 3.61875 -0.4375 4.25 C-3.14109718 5.73452331 -3.14109718 5.73452331 -3.8125 8.1875 C-3.874375 8.785625 -3.93625 9.38375 -4 10 C-5.32 10.33 -6.64 10.66 -8 11 C-8 11.66 -8 12.32 -8 13 C-8.66 13 -9.32 13 -10 13 C-8.78329471 10.2347607 -7.24570702 7.74946103 -5.5625 5.25 C-4.94568359 4.32960938 -4.94568359 4.32960938 -4.31640625 3.390625 C-3.88199219 2.93171875 -3.44757812 2.4728125 -3 2 C-2.01 2 -1.02 2 0 2 C0 1.34 0 0.68 0 0 Z " fill="#B31850" transform="translate(59,80)"/>
<path d="M0 0 C1.73046875 0.13671875 1.73046875 0.13671875 4 1 C6.17578125 3.58203125 6.17578125 3.58203125 8.3125 6.8125 C9.03050781 7.87082031 9.74851562 8.92914063 10.48828125 10.01953125 C12 13 12 13 11.73046875 15.38671875 C11.36888672 16.18529297 11.36888672 16.18529297 11 17 C10.54109375 16.27554688 10.0821875 15.55109375 9.609375 14.8046875 C6.45547158 9.83530186 3.29525 4.87697 0 0 Z " fill="#AA154D" transform="translate(305,97)"/>
<path d="M0 0 C0.33 0 0.66 0 1 0 C1.33165262 6.79273689 1.33098087 11.9786115 -2 18 C-2.66 18.66 -3.32 19.32 -4 20 C-2.66666667 13.33333333 -1.33333333 6.66666667 0 0 Z " fill="#AD1F51" transform="translate(335,212)"/>
<path d="M0 0 C0.625 1.8125 0.625 1.8125 1 4 C0.01 5.485 0.01 5.485 -1 7 C-0.67 7.66 -0.34 8.32 0 9 C-0.66 9 -1.32 9 -2 9 C-2 9.99 -2 10.98 -2 12 C-2.99 11.67 -3.98 11.34 -5 11 C-5.99 11.495 -5.99 11.495 -7 12 C-5.44298069 7.32894208 -2.91552627 3.91294315 0 0 Z " fill="#B11850" transform="translate(130,158)"/>
<path d="M0 0 C0.66 0 1.32 0 2 0 C0.75297849 6.35450323 -0.57364259 12.68327435 -2 19 C-2.33 19 -2.66 19 -3 19 C-3.24873139 12.13224996 -3.13047437 6.26094873 0 0 Z " fill="#AC1951" transform="translate(50,144)"/>
<path d="M0 0 C0 0.66 0 1.32 0 2 C-5.20833333 1.47916667 -10.41666667 0.95833333 -15.625 0.4375 C-16.88183594 0.31181641 -16.88183594 0.31181641 -18.1640625 0.18359375 C-18.76992187 0.12300781 -19.37578125 0.06242187 -20 0 C-20 -0.33 -20 -0.66 -20 -1 C-17.79317093 -1.22370596 -15.58440027 -1.42830391 -13.375 -1.625 C-11.53035156 -1.79902344 -11.53035156 -1.79902344 -9.6484375 -1.9765625 C-5.94681886 -2.00034163 -3.40982003 -1.37441976 0 0 Z " fill="#B52057" transform="translate(223,44)"/>
<path d="M0 0 C0.33 1.32 0.66 2.64 1 4 C-0.6171875 6.5078125 -0.6171875 6.5078125 -2.875 9.125 C-5.73571287 12.36492204 -5.73571287 12.36492204 -8 16 C-8.66 15.67 -9.32 15.34 -10 15 C-5.05 7.575 -5.05 7.575 0 0 Z " fill="#A31848" transform="translate(150,128)"/>
<path d="M0 0 C1.32 0.33 2.64 0.66 4 1 C1.36 5.29 -1.28 9.58 -4 14 C-5 10 -5 10 -4.2578125 8.18359375 C-3.88398438 7.60738281 -3.51015625 7.03117187 -3.125 6.4375 C-1.70353789 4.20590389 -0.85368921 2.56106764 0 0 Z " fill="#B82A5C" transform="translate(191,112)"/>
<path d="M0 0 C2.50357861 0.8345262 4.66785852 1.79371992 7 3 C6.01 3.33 5.02 3.66 4 4 C4.33 4.99 4.66 5.98 5 7 C4.01 7.495 4.01 7.495 3 8 C1 6 1 6 0 4 C-0.99 3.67 -1.98 3.34 -3 3 C-2.01 2.01 -1.02 1.02 0 0 Z " fill="#BF0D4D" transform="translate(305,280)"/>
<path d="M0 0 C0.66 0 1.32 0 2 0 C1.04271361 2.61078105 0.37837568 3.78214734 -2.0625 5.1875 C-6.00568954 6.27816945 -9.93092116 6.66312637 -14 7 C-13.67 6.34 -13.34 5.68 -13 5 C-10.49730442 4.39450913 -7.99096441 4.04237512 -5.4453125 3.66015625 C-2.73466981 2.92836933 -1.84883345 2.03150262 0 0 Z " fill="#B19FA9" transform="translate(154,191)"/>
<path d="M0 0 C0.66 0.33 1.32 0.66 2 1 C-0.7095147 3.98980932 -3.5248178 5.31276773 -7.16015625 6.9375 C-9.32396448 8.00588976 -9.32396448 8.00588976 -11 11 C-11.33 9.68 -11.66 8.36 -12 7 C-10.04754815 5.80285445 -8.08785003 4.61751926 -6.125 3.4375 C-5.03445312 2.77621094 -3.94390625 2.11492187 -2.8203125 1.43359375 C-1.88960938 0.96050781 -0.95890625 0.48742187 0 0 Z " fill="#A71D4B" transform="translate(260,317)"/>
<path d="M0 0 C2.14909962 2.76854598 4.01778828 5.57834526 5.75 8.625 C6.19859375 9.40101563 6.6471875 10.17703125 7.109375 10.9765625 C7.40328125 11.64429688 7.6971875 12.31203125 8 13 C7.67 13.66 7.34 14.32 7 15 C4.69145075 12.87666387 3.21587424 10.86387158 1.8125 8.0625 C1.29623047 7.05896484 1.29623047 7.05896484 0.76953125 6.03515625 C0 4 0 4 0 0 Z " fill="#A31649" transform="translate(58,250)"/>
<path d="M0 0 C0 0.66 0 1.32 0 2 C-1.93475671 2.53093324 -3.87293155 3.04942317 -5.8125 3.5625 C-7.43091797 3.99755859 -7.43091797 3.99755859 -9.08203125 4.44140625 C-12 5 -12 5 -15 4 C-9.76557329 1.6847728 -5.79345971 0 0 0 Z " fill="#AE194F" transform="translate(156,21)"/>
<path d="M0 0 C4.3177458 0.50797009 8.03302114 1.19682779 12 3 C11.67 3.99 11.34 4.98 11 6 C9.5410574 5.52269162 8.08286504 5.04308958 6.625 4.5625 C5.81289062 4.29566406 5.00078125 4.02882813 4.1640625 3.75390625 C2 3 2 3 0 2 C0 1.34 0 0.68 0 0 Z " fill="#AE174B" transform="translate(231,22)"/>
<path d="M0 0 C0.66 0.33 1.32 0.66 2 1 C1.67 1.99 1.34 2.98 1 4 C0.34 4 -0.32 4 -1 4 C-1.061875 4.763125 -1.12375 5.52625 -1.1875 6.3125 C-2 9 -2 9 -4.5625 10.8125 C-5.366875 11.204375 -6.17125 11.59625 -7 12 C-5.44298069 7.32894208 -2.91552627 3.91294315 0 0 Z " fill="#AF184D" transform="translate(117,178)"/>
<path d="M0 0 C1 3 1 3 0.0625 5.1875 C-0.4634375 6.0846875 -0.4634375 6.0846875 -1 7 C-1.66 7 -2.32 7 -3 7 C-3.268125 7.969375 -3.53625 8.93875 -3.8125 9.9375 C-4.204375 10.948125 -4.59625 11.95875 -5 13 C-5.99 13.33 -6.98 13.66 -8 14 C-6.6744419 10.37723685 -5.05653045 7.36494652 -2.875 4.1875 C-2.33617187 3.39730469 -1.79734375 2.60710937 -1.2421875 1.79296875 C-0.83226562 1.20128906 -0.42234375 0.60960937 0 0 Z " fill="#A61A4B" transform="translate(139,144)"/>
<path d="M0 0 C1.32 0.33 2.64 0.66 4 1 C2.54634731 2.17249353 1.08692581 3.33783816 -0.375 4.5 C-1.18710938 5.1496875 -1.99921875 5.799375 -2.8359375 6.46875 C-5 8 -5 8 -7 8 C-5.84826645 5.53199953 -4.95216435 3.95216435 -3 2 C-2.01 2 -1.02 2 0 2 C0 1.34 0 0.68 0 0 Z " fill="#B3134C" transform="translate(106,67)"/>
<path d="M0 0 C0.66 1.32 1.32 2.64 2 4 C0 6 0 6 -3 7 C-3.66 7.99 -4.32 8.98 -5 10 C-5.33 9.01 -5.66 8.02 -6 7 C-4.78515625 5.17578125 -4.78515625 5.17578125 -3.0625 3.3125 C-2.49660156 2.68988281 -1.93070312 2.06726563 -1.34765625 1.42578125 C-0.90292969 0.95527344 -0.45820312 0.48476562 0 0 Z " fill="#C60A4C" transform="translate(70,68)"/>
<path d="M0 0 C-1 2 -1 2 -3.65234375 3.10546875 C-4.73644531 3.46253906 -5.82054687 3.81960937 -6.9375 4.1875 C-8.01902344 4.55230469 -9.10054687 4.91710938 -10.21484375 5.29296875 C-13 6 -13 6 -15 5 C-9.99422572 1.85351331 -6.01877323 -0.3439299 0 0 Z " fill="#A81352" transform="translate(152,47)"/>
<path d="M0 0 C0.33 0 0.66 0 1 0 C1.36263859 5.8022175 0.25684543 9.63999211 -2 15 C-3.11446742 11.65659775 -2.85175268 10.31739772 -2.125 6.9375 C-1.94195313 6.05964844 -1.75890625 5.18179688 -1.5703125 4.27734375 C-1 2 -1 2 0 0 Z " fill="#B2134E" transform="translate(30,128)"/>
<path d="M0 0 C2.97 0.495 2.97 0.495 6 1 C5.67 1.99 5.34 2.98 5 4 C1.4375 5.1875 1.4375 5.1875 -2 6 C-1.34 4.02 -0.68 2.04 0 0 Z " fill="#BE0E4C" transform="translate(132,50)"/>
<path d="M0 0 C0.99 0.33 1.98 0.66 3 1 C2.34 2.98 1.68 4.96 1 7 C0.34 7 -0.32 7 -1 7 C-1.66 8.98 -2.32 10.96 -3 13 C-3.6875 11.3125 -3.6875 11.3125 -4 9 C-2.625 6.5 -2.625 6.5 -1 4 C-0.30420546 1.80869466 -0.30420546 1.80869466 0 0 Z " fill="#C50C4F" transform="translate(323,253)"/>
<path d="M0 0 C0.66 0 1.32 0 2 0 C0.54955729 4.10958767 -1.51110752 7.43258745 -4 11 C-5 8 -5 8 -3.6875 4.9375 C-2 2 -2 2 0 0 Z " fill="#B4B1B4" transform="translate(183,146)"/>
<path d="M0 0 C0.99 0.66 1.98 1.32 3 2 C2.01 2 1.02 2 0 2 C0 5.11257569 0.17361624 7.10765685 1 10 C-1.475 9.01 -1.475 9.01 -4 8 C-3.67 6.35 -3.34 4.7 -3 3 C-2.34 3 -1.68 3 -1 3 C-0.67 2.01 -0.34 1.02 0 0 Z " fill="#C8074B" transform="translate(143,141)"/>
<path d="M0 0 C0.66 0 1.32 0 2 0 C3.35386936 1.65002828 4.68678142 3.3174387 6 5 C6.66 5.33 7.32 5.66 8 6 C8 6.66 8 7.32 8 8 C8.66 8.33 9.32 8.66 10 9 C8.68 9 7.36 9 6 9 C6 8.34 6 7.68 6 7 C5.01 7 4.02 7 3 7 C2.01 4.69 1.02 2.38 0 0 Z " fill="#BB0E4D" transform="translate(317,114)"/>
<path d="M0 0 C3.39192363 0.59283621 5.2107757 1.76743189 7.75 4.0625 C8.67039062 4.88427734 8.67039062 4.88427734 9.609375 5.72265625 C10.29773438 6.35494141 10.29773438 6.35494141 11 7 C9.68 7.33 8.36 7.66 7 8 C5.76302083 6.50260417 4.52604167 5.00520833 3.2890625 3.5078125 C2.24749008 2.28948839 1.13339903 1.13339903 0 0 Z " fill="#AE1345" transform="translate(84,291)"/>
<path d="M0 0 C2.9719385 1.12451727 5.33440687 2.22293791 8 4 C7.67 5.32 7.34 6.64 7 8 C5.83035398 6.8572081 4.66435444 5.71068285 3.5 4.5625 C2.8503125 3.92441406 2.200625 3.28632812 1.53125 2.62890625 C0 1 0 1 0 0 Z " fill="#AB144B" transform="translate(287,78)"/>
<path d="M0 0 C-5.445 2.475 -5.445 2.475 -11 5 C-11.33 4.34 -11.66 3.68 -12 3 C-10.75823305 2.29773859 -9.50614401 1.61370891 -8.25 0.9375 C-7.20585937 0.36322266 -7.20585937 0.36322266 -6.140625 -0.22265625 C-4 -1 -4 -1 0 0 Z " fill="#AA1049" transform="translate(274,340)"/>
<path d="M0 0 C0.75 1.5625 0.75 1.5625 1 4 C-0.13084437 6.50286409 -1.52139516 8.67007722 -3 11 C-3.66 11 -4.32 11 -5 11 C-3.55049545 7.2089881 -1.84827434 3.6125362 0 0 Z " fill="#A41D4D" transform="translate(322,253)"/>
<path d="M0 0 C-1.36983503 3.16115776 -1.9890638 3.9927092 -5 6 C-7.1875 5.625 -7.1875 5.625 -9 5 C-7.87926138 4.16094435 -6.75325453 3.32892169 -5.625 2.5 C-4.99851562 2.0359375 -4.37203125 1.571875 -3.7265625 1.09375 C-2 0 -2 0 0 0 Z " fill="#AA2255" transform="translate(101,43)"/>
<path d="M0 0 C3.8063457 0.67170806 7.35206816 1.72746564 11 3 C11 3.33 11 3.66 11 4 C9.54119891 3.85892253 8.08296449 3.71197585 6.625 3.5625 C5.40683594 3.44068359 5.40683594 3.44068359 4.1640625 3.31640625 C2 3 2 3 0 2 C0 1.34 0 0.68 0 0 Z " fill="#A72054" transform="translate(137,325)"/>
<path d="M0 0 C0.93065133 2.60582371 1.14917407 3.64198224 0.0625 6.25 C-0.4634375 7.11625 -0.4634375 7.11625 -1 8 C-1.99 7.67 -2.98 7.34 -4 7 C-3.625 4.5625 -3.625 4.5625 -3 2 C-2.34 1.67 -1.68 1.34 -1 1 C-0.67 0.67 -0.34 0.34 0 0 Z " fill="#B80E4B" transform="translate(63,114)"/>
<path d="M0 0 C0.99 0.33 1.98 0.66 3 1 C-0.96 4.465 -0.96 4.465 -5 8 C-5 5 -5 5 -3.625 3.3125 C-2 2 -2 2 0 2 C0 1.34 0 0.68 0 0 Z " fill="#A71A4E" transform="translate(96,75)"/>
<path d="M0 0 C-1.1858237 3.37503669 -2.27573689 5.64722731 -5 8 C-4.74438677 5.6568787 -4.40729228 3.32156597 -4 1 C-2 0 -2 0 0 0 Z " fill="#AE1148" transform="translate(341,272)"/>
<path d="M0 0 C0.66 0.33 1.32 0.66 2 1 C2 2.98 2 4.96 2 7 C1.01 7 0.02 7 -1 7 C-1.04254356 5.00045254 -1.04080783 2.99958364 -1 1 C-0.67 0.67 -0.34 0.34 0 0 Z " fill="#B90F4E" transform="translate(27,232)"/>
<path d="M0 0 C0.99 0 1.98 0 3 0 C2.50168276 3.68754757 1.89932357 5.60490662 -1 8 C-0.67 5.36 -0.34 2.72 0 0 Z " fill="#B52156" transform="translate(172,140)"/>
<path d="M0 0 C0.86625 0.4640625 0.86625 0.4640625 1.75 0.9375 C3.84294184 1.92583364 5.74535275 2.5168613 8 3 C8 3.66 8 4.32 8 5 C5.69 4.67 3.38 4.34 1 4 C0.67 2.68 0.34 1.36 0 0 Z " fill="#C40C4D" transform="translate(280,44)"/>
<path d="M0 0 C2.0625 0.4375 2.0625 0.4375 4 1 C4 2.32 4 3.64 4 5 C2.0625 4.6875 2.0625 4.6875 0 4 C-0.33 3.01 -0.66 2.02 -1 1 C-0.67 0.67 -0.34 0.34 0 0 Z " fill="#BA0E4B" transform="translate(116,340)"/>
<path d="M0 0 C4.75 0.875 4.75 0.875 7 2 C7 2.66 7 3.32 7 4 C4.625 3.6875 4.625 3.6875 2 3 C1.34 2.01 0.68 1.02 0 0 Z " fill="#B61047" transform="translate(115,315)"/>
</svg>
