<svg width="1149" height="302" viewBox="0 0 1149 302" fill="none" xmlns="http://www.w3.org/2000/svg">
<g opacity="0.06">
<path d="M897.606 109.484C893.442 111.14 890.622 115.214 890.622 119.781C890.622 125.892 895.591 130.861 901.702 130.861H903.896C904.814 130.861 905.575 130.1 905.575 129.182C905.575 128.265 904.814 127.503 903.896 127.503H901.702C897.449 127.503 893.979 124.034 893.979 119.781C893.979 116.334 896.307 113.267 899.62 112.349C900.314 112.148 900.807 111.543 900.851 110.849C901.254 104.873 906.246 100.172 912.245 100.172C914.17 100.172 916.095 100.664 917.774 101.604C918.177 101.828 918.67 101.873 919.095 101.739C919.543 101.604 919.901 101.291 920.102 100.866C922.251 96.4335 926.818 93.5682 931.742 93.5682C938.861 93.5682 944.658 99.3659 944.658 106.484C944.658 107.693 944.479 108.902 944.144 110.066C944.009 110.513 944.076 111.006 944.323 111.431C944.569 111.834 944.994 112.103 945.464 112.192C949.18 112.841 951.866 116.043 951.866 119.803C951.866 124.056 948.397 127.526 944.144 127.526H922.923C922.005 127.526 921.244 128.287 921.244 129.205C921.244 130.123 922.005 130.884 922.923 130.884H944.144C950.255 130.884 955.224 125.914 955.224 119.803C955.224 115.013 952.18 110.849 947.77 109.327C947.927 108.387 948.016 107.447 948.016 106.507C948.016 97.5303 940.719 90.2329 931.742 90.2329C926.101 90.2329 920.819 93.2101 917.886 97.9557C916.095 97.217 914.17 96.8364 912.245 96.8364C904.881 96.8364 898.658 102.321 897.628 109.506L897.606 109.484Z" fill="black"/>
<path d="M912.088 127.503C911.171 127.503 910.409 128.264 910.409 129.182C910.409 130.1 911.171 130.861 912.088 130.861H913.275C914.192 130.861 914.954 130.1 914.954 129.182C914.954 128.264 914.192 127.503 913.275 127.503H912.088Z" fill="black"/>
<path d="M308.282 107.178C308.573 105.723 308.73 104.246 308.73 102.768C308.73 90.5685 298.791 80.6296 286.591 80.6296C278.734 80.6296 271.392 84.9051 267.452 91.6429C264.878 90.5013 262.08 89.8969 259.26 89.8969C249.142 89.8969 240.613 97.5301 239.382 107.469C233.607 109.596 229.645 115.169 229.645 121.415C229.645 129.607 236.315 136.278 244.508 136.278H250.418C251.335 136.278 252.096 135.517 252.096 134.599C252.096 133.681 251.335 132.92 250.418 132.92H244.508C238.173 132.92 233.002 127.772 233.002 121.415C233.002 116.289 236.449 111.744 241.397 110.357C242.09 110.155 242.583 109.551 242.628 108.857C243.21 100.127 250.507 93.277 259.26 93.277C262.08 93.277 264.878 93.9933 267.34 95.3812C267.743 95.605 268.213 95.6498 268.661 95.5155C269.109 95.3812 269.467 95.0678 269.668 94.6425C272.78 88.1957 279.428 84.0321 286.591 84.0321C296.955 84.0321 305.372 92.4488 305.372 102.813C305.372 104.559 305.126 106.305 304.633 108.006C304.499 108.454 304.566 108.946 304.835 109.372C305.081 109.775 305.506 110.043 305.976 110.133C311.483 111.095 315.49 115.863 315.49 121.459C315.49 127.794 310.341 132.965 303.984 132.965H271.28C270.362 132.965 269.601 133.726 269.601 134.644C269.601 135.562 270.362 136.323 271.28 136.323H303.984C312.177 136.323 318.848 129.652 318.848 121.459C318.848 114.834 314.505 109.103 308.304 107.245L308.282 107.178Z" fill="black"/>
<path d="M260.737 136.233C261.655 136.233 262.416 135.472 262.416 134.555C262.416 133.637 261.655 132.876 260.737 132.876H259.081C258.163 132.876 257.402 133.637 257.402 134.555C257.402 135.472 258.163 136.233 259.081 136.233H260.737Z" fill="black"/>
<path d="M811.917 76.3766C829.332 76.3766 843.502 62.207 843.502 44.7917C843.502 27.3764 829.332 13.2292 811.917 13.2292C794.502 13.2292 780.332 27.3988 780.332 44.7917C780.332 62.1847 794.502 76.3766 811.917 76.3766ZM811.917 16.587C827.474 16.587 840.144 29.2343 840.144 44.7917C840.144 60.3491 827.474 73.0189 811.917 73.0189C796.36 73.0189 783.69 60.3715 783.69 44.7917C783.69 29.2119 796.36 16.587 811.917 16.587Z" fill="black"/>
<path d="M811.917 7.94658C812.834 7.94658 813.595 7.1855 813.595 6.26772V1.67886C813.595 0.761081 812.834 0 811.917 0C810.999 0 810.238 0.761081 810.238 1.67886V6.26772C810.238 7.1855 810.999 7.94658 811.917 7.94658Z" fill="black"/>
<path d="M791.189 12.2669C791.502 12.8042 792.062 13.0952 792.644 13.0952C792.935 13.0952 793.226 13.028 793.472 12.8713C794.278 12.4012 794.546 11.3715 794.076 10.5881L791.793 6.62598C791.323 5.82013 790.316 5.55151 789.51 6.02159C788.704 6.49167 788.435 7.52137 788.905 8.30484L791.189 12.2669Z" fill="black"/>
<path d="M773.728 24.6904L777.69 26.9736C777.959 27.1303 778.25 27.1975 778.519 27.1975C779.101 27.1975 779.66 26.9064 779.974 26.3468C780.444 25.541 780.153 24.5113 779.369 24.0636L775.407 21.7804C774.601 21.3103 773.571 21.6013 773.124 22.3847C772.654 23.1906 772.945 24.2203 773.728 24.668V24.6904Z" fill="black"/>
<path d="M768.804 46.4705H773.393C774.31 46.4705 775.071 45.7094 775.071 44.7916C775.071 43.8739 774.31 43.1128 773.393 43.1128H768.804C767.886 43.1128 767.125 43.8739 767.125 44.7916C767.125 45.7094 767.886 46.4705 768.804 46.4705Z" fill="black"/>
<path d="M777.713 62.6101L773.751 64.8933C772.945 65.3634 772.676 66.3931 773.146 67.1765C773.46 67.7138 774.019 68.0272 774.601 68.0272C774.892 68.0272 775.183 67.96 775.429 67.8033L779.392 65.5201C780.197 65.05 780.466 64.0203 779.996 63.2368C779.526 62.431 778.519 62.1624 777.713 62.6324V62.6101Z" fill="black"/>
<path d="M791.188 77.3168L788.905 81.2789C788.435 82.0847 788.726 83.1144 789.51 83.5621C789.778 83.7188 790.069 83.786 790.338 83.786C790.92 83.786 791.479 83.495 791.793 82.9353L794.076 78.9733C794.546 78.1674 794.255 77.1377 793.472 76.69C792.666 76.2199 791.636 76.5109 791.188 77.2944V77.3168Z" fill="black"/>
<path d="M813.595 83.3158C813.595 82.398 812.834 81.637 811.917 81.637C810.999 81.637 810.238 82.398 810.238 83.3158V87.9047C810.238 88.8225 810.999 89.5835 811.917 89.5835C812.834 89.5835 813.595 88.8225 813.595 87.9047V83.3158Z" fill="black"/>
<path d="M830.339 76.7123C829.533 77.1824 829.265 78.2121 829.735 78.9956L832.018 82.9577C832.332 83.4949 832.891 83.8083 833.473 83.8083C833.764 83.8083 834.055 83.7411 834.301 83.5845C835.107 83.1144 835.376 82.0847 834.906 81.3012L832.623 77.3391C832.152 76.5333 831.145 76.2646 830.339 76.7347V76.7123Z" fill="black"/>
<path d="M844.419 65.5199L848.381 67.8032C848.65 67.9599 848.941 68.027 849.21 68.027C849.792 68.027 850.351 67.736 850.665 67.1764C851.135 66.3706 850.844 65.3409 850.06 64.8932L846.098 62.6099C845.292 62.1399 844.263 62.4309 843.815 63.2143C843.345 64.0202 843.636 65.0499 844.419 65.4976V65.5199Z" fill="black"/>
<path d="M850.441 43.1128C849.523 43.1128 848.762 43.8739 848.762 44.7916C848.762 45.7094 849.523 46.4705 850.441 46.4705H855.029C855.947 46.4705 856.708 45.7094 856.708 44.7916C856.708 43.8739 855.947 43.1128 855.029 43.1128H850.441Z" fill="black"/>
<path d="M845.27 27.2198C845.561 27.2198 845.852 27.1526 846.098 26.9959L850.06 24.7127C850.866 24.2426 851.135 23.2129 850.665 22.4294C850.195 21.6236 849.187 21.355 848.381 21.8251L844.419 24.1083C843.613 24.5784 843.345 25.6081 843.815 26.3915C844.128 26.9288 844.688 27.2422 845.27 27.2422V27.2198Z" fill="black"/>
<path d="M830.339 12.8937C830.608 13.0504 830.899 13.1175 831.167 13.1175C831.749 13.1175 832.309 12.8265 832.622 12.2669L834.906 8.30481C835.376 7.49896 835.085 6.46926 834.301 6.02156C833.495 5.55148 832.466 5.84249 832.018 6.62595L829.735 10.588C829.265 11.3939 829.556 12.4236 830.339 12.8713V12.8937Z" fill="black"/>
<path d="M932.436 28.1153C932.772 28.451 933.197 28.6077 933.623 28.6077C934.048 28.6077 934.473 28.451 934.809 28.1153L937.316 25.6082L939.823 28.1153C940.159 28.451 940.584 28.6077 941.01 28.6077C941.435 28.6077 941.86 28.451 942.196 28.1153C942.845 27.4661 942.845 26.3916 942.196 25.7425L939.689 23.2354L942.196 20.7283C942.845 20.0791 942.845 19.0047 942.196 18.3555C941.547 17.7064 940.472 17.7064 939.823 18.3555L937.316 20.8626L934.809 18.3555C934.16 17.7064 933.085 17.7064 932.436 18.3555C931.787 19.0047 931.787 20.0791 932.436 20.7283L934.943 23.2354L932.436 25.7425C931.787 26.3916 931.787 27.4661 932.436 28.1153Z" fill="black"/>
<path d="M597.941 91.7103C597.292 91.0611 596.217 91.0611 595.568 91.7103L593.061 94.2173L590.554 91.7103C589.905 91.0611 588.83 91.0611 588.181 91.7103C587.532 92.3594 587.532 93.4339 588.181 94.083L590.688 96.5901L588.181 99.0972C587.532 99.7464 587.532 100.821 588.181 101.47C588.517 101.806 588.942 101.962 589.368 101.962C589.793 101.962 590.218 101.806 590.554 101.47L593.061 98.9629L595.568 101.47C595.904 101.806 596.329 101.962 596.755 101.962C597.18 101.962 597.605 101.806 597.941 101.47C598.59 100.821 598.59 99.7464 597.941 99.0972L595.434 96.5901L597.941 94.083C598.59 93.4339 598.59 92.3594 597.941 91.7103Z" fill="black"/>
<path d="M813.103 153.47C812.454 152.82 811.38 152.82 810.73 153.47L808.223 155.977L805.716 153.47C805.067 152.82 803.993 152.82 803.344 153.47C802.694 154.119 802.694 155.193 803.344 155.842L805.851 158.349L803.344 160.857C802.694 161.506 802.694 162.58 803.344 163.229C803.679 163.565 804.105 163.722 804.53 163.722C804.955 163.722 805.381 163.565 805.716 163.229L808.223 160.722L810.73 163.229C811.066 163.565 811.492 163.722 811.917 163.722C812.342 163.722 812.767 163.565 813.103 163.229C813.752 162.58 813.752 161.506 813.103 160.857L810.596 158.349L813.103 155.842C813.752 155.193 813.752 154.119 813.103 153.47Z" fill="black"/>
<path d="M128.018 92.7847C128.354 93.1205 128.779 93.2772 129.205 93.2772C129.63 93.2772 130.055 93.1205 130.391 92.7847L132.898 90.2776L135.405 92.7847C135.741 93.1205 136.166 93.2772 136.591 93.2772C137.017 93.2772 137.442 93.1205 137.778 92.7847C138.427 92.1355 138.427 91.0611 137.778 90.4119L135.271 87.9048L137.778 85.3977C138.427 84.7486 138.427 83.6741 137.778 83.025C137.129 82.3758 136.054 82.3758 135.405 83.025L132.898 85.5321L130.391 83.025C129.742 82.3758 128.667 82.3758 128.018 83.025C127.369 83.6741 127.369 84.7486 128.018 85.3977L130.525 87.9048L128.018 90.4119C127.369 91.0611 127.369 92.1355 128.018 92.7847Z" fill="black"/>
<path d="M1029.29 104.738C1028.65 104.089 1027.57 104.089 1026.92 104.738L1024.41 107.245L1021.91 104.738C1021.26 104.089 1020.18 104.089 1019.53 104.738C1018.89 105.387 1018.89 106.462 1019.53 107.111L1022.04 109.618L1019.53 112.125C1018.89 112.774 1018.89 113.849 1019.53 114.498C1019.87 114.834 1020.3 114.99 1020.72 114.99C1021.15 114.99 1021.57 114.834 1021.91 114.498L1024.41 111.991L1026.92 114.498C1027.26 114.834 1027.68 114.99 1028.11 114.99C1028.53 114.99 1028.96 114.834 1029.29 114.498C1029.94 113.849 1029.94 112.774 1029.29 112.125L1026.79 109.618L1029.29 107.111C1029.94 106.462 1029.94 105.387 1029.29 104.738Z" fill="black"/>
<path d="M1078.47 52.6937C1082.82 52.6937 1086.35 49.1569 1086.35 44.8142C1086.35 40.4716 1082.82 36.9348 1078.47 36.9348C1074.13 36.9348 1070.59 40.4716 1070.59 44.8142C1070.59 49.1569 1074.13 52.6937 1078.47 52.6937ZM1078.47 40.2701C1080.98 40.2701 1083 42.3071 1083 44.7919C1083 47.2766 1080.96 49.3136 1078.47 49.3136C1075.99 49.3136 1073.95 47.2766 1073.95 44.7919C1073.95 42.3071 1075.99 40.2701 1078.47 40.2701Z" fill="black"/>
<path d="M386.316 95.7842C390.658 95.7842 394.195 92.2474 394.195 87.9048C394.195 83.5622 390.658 80.0254 386.316 80.0254C381.973 80.0254 378.436 83.5622 378.436 87.9048C378.436 92.2474 381.973 95.7842 386.316 95.7842ZM386.316 83.3831C388.823 83.3831 390.837 85.4201 390.837 87.9048C390.837 90.3895 388.8 92.4265 386.316 92.4265C383.831 92.4265 381.794 90.3895 381.794 87.9048C381.794 85.4201 383.831 83.3831 386.316 83.3831Z" fill="black"/>
<path d="M34.6514 169.922C38.994 169.922 42.5308 166.386 42.5308 162.043C42.5308 157.7 38.994 154.164 34.6514 154.164C30.3087 154.164 26.772 157.7 26.772 162.043C26.772 166.386 30.3087 169.922 34.6514 169.922ZM34.6514 157.521C37.1585 157.521 39.1731 159.558 39.1731 162.043C39.1731 164.528 37.1361 166.565 34.6514 166.565C32.1667 166.565 30.1297 164.528 30.1297 162.043C30.1297 159.558 32.1667 157.521 34.6514 157.521Z" fill="black"/>
<path d="M1148.78 301.343V297.985H1096.36V238.935C1117.47 236.763 1133.99 218.878 1133.99 197.209C1133.99 183.846 1127.65 171.355 1116.93 163.431C1120.49 158.35 1122.35 152.395 1122.35 146.127C1122.35 129.406 1108.74 115.796 1092.02 115.796C1075.3 115.796 1061.69 129.406 1061.69 146.127C1061.69 152.395 1063.57 158.35 1067.1 163.431C1066.07 164.192 1065.09 164.975 1064.15 165.826C1063.45 166.453 1063.39 167.505 1064.01 168.199C1064.62 168.893 1065.69 168.96 1066.39 168.333C1067.66 167.214 1069.01 166.162 1070.42 165.199C1070.8 164.931 1071.06 164.528 1071.13 164.058C1071.2 163.588 1071.09 163.117 1070.8 162.759C1067.04 157.969 1065.04 152.216 1065.04 146.105C1065.04 131.242 1077.15 119.131 1092.02 119.131C1106.88 119.131 1118.99 131.242 1118.99 146.105C1118.99 152.194 1117 157.969 1113.24 162.759C1112.95 163.117 1112.83 163.588 1112.9 164.058C1112.97 164.528 1113.24 164.931 1113.62 165.199C1124.27 172.407 1130.63 184.361 1130.63 197.209C1130.63 217.02 1115.61 233.383 1096.36 235.554V229.242L1116.8 201.44C1117.36 200.701 1117.18 199.649 1116.44 199.09C1115.7 198.53 1114.65 198.709 1114.09 199.448L1096.36 223.556V185.905C1096.36 184.987 1095.6 184.226 1094.68 184.226C1093.76 184.226 1093 184.987 1093 185.905V204.171L1079.64 191.345C1078.97 190.695 1077.91 190.718 1077.27 191.389C1076.62 192.061 1076.64 193.113 1077.31 193.762L1092.98 208.827V235.756C1092.64 235.756 1092.33 235.801 1092.02 235.801C1084.67 235.801 1077.56 233.741 1071.4 229.824C1071.29 229.757 1071.15 229.734 1071.04 229.69V192.33C1071.04 178.406 1059.72 167.102 1045.81 167.102C1031.91 167.102 1020.56 178.429 1020.56 192.33V230.943C1020.56 244.62 1031.51 255.768 1045.1 256.148V297.985H1028.51C1028.51 297.985 1028.56 297.829 1028.56 297.762C1028.44 294.561 1033.5 288.875 1036.75 286.054C1037.29 285.584 1037.47 284.823 1037.2 284.174C1036.93 283.503 1036.3 283.1 1035.56 283.122C1031.69 283.279 1028.74 284.107 1026.56 285.025C1030.1 278.488 1036.37 274.683 1036.44 274.616C1037.06 274.235 1037.38 273.497 1037.2 272.78C1037.02 272.064 1036.41 271.549 1035.7 271.482C1020.03 270.34 1012.95 280.346 1010.38 285.562C1007.09 281.197 999.501 272.847 988.599 271.482C987.838 271.392 987.122 271.818 986.831 272.512C986.54 273.206 986.764 274.011 987.346 274.482C987.48 274.571 999.792 284.353 995.539 297.739C995.516 297.806 995.539 297.896 995.516 297.963H981.011C981.011 297.963 981.011 297.896 981.011 297.851V258.096C981.011 257.178 980.25 256.417 979.332 256.417H952.045C951.127 256.417 950.366 257.178 950.366 258.096V297.851C950.366 297.851 950.366 297.918 950.366 297.963H920.147V245.113L963.282 186.532L1001.45 236.248V271.303C1001.45 272.221 1002.21 272.982 1003.13 272.982C1004.04 272.982 1004.81 272.221 1004.81 271.303V240.636L1010.6 248.179C1010.94 248.605 1011.43 248.829 1011.95 248.829C1012.3 248.829 1012.66 248.717 1012.98 248.47C1013.72 247.911 1013.85 246.859 1013.29 246.12L964.603 182.704C964.603 182.704 964.581 182.682 964.558 182.659C964.424 182.503 964.29 182.368 964.111 182.279C964.088 182.279 964.043 182.256 964.021 182.234C963.887 182.167 963.73 182.1 963.573 182.077C963.528 182.077 963.461 182.077 963.417 182.055C963.372 182.055 963.327 182.055 963.282 182.055H873.699C873.139 182.055 872.647 182.324 872.333 182.771L838.017 231.794C837.48 232.555 837.659 233.607 838.42 234.122C839.181 234.659 840.233 234.458 840.748 233.719L874.549 185.413H959.947L917.617 242.897H844.934C844.016 242.897 843.255 243.658 843.255 244.576C843.255 245.493 844.016 246.254 844.934 246.254H916.789V297.985H832.757V277.996C832.757 277.078 831.996 276.317 831.078 276.317C830.16 276.317 829.399 277.078 829.399 277.996V297.985H819.169V276.989C831.369 276.116 841.039 265.953 841.039 253.529C841.039 245.516 837.01 238.173 830.384 233.831C833.16 230.697 834.727 226.645 834.727 222.415C834.727 212.923 827.004 205.178 817.491 205.178C807.977 205.178 800.254 212.901 800.254 222.415C800.254 226.645 801.821 230.697 804.597 233.831C797.971 238.173 793.942 245.516 793.942 253.529C793.942 265.953 803.612 276.138 815.812 276.989V297.985H784.092V211.133C784.092 210.506 783.757 209.946 783.219 209.655L745.546 189.397V134.308C745.546 133.391 744.785 132.629 743.867 132.629H738.472V123.25C738.472 122.332 737.711 121.571 736.794 121.571H733.234V112.349C733.234 111.431 732.473 110.67 731.555 110.67H702.5C701.582 110.67 700.821 111.431 700.821 112.349V121.236H704.179V114.028H729.877V121.571H695.158C694.24 121.571 693.479 122.332 693.479 123.25V132.629H686.45C685.532 132.629 684.771 133.391 684.771 134.308V166.05C684.771 166.542 684.995 166.99 685.353 167.281H648.329C647.411 167.281 646.65 168.042 646.65 168.96V202.179H597.941C597.023 202.179 596.262 202.94 596.262 203.858V297.941H583.928V153.962L602.261 150.022L601.567 146.732L534.145 161.192V108.32L544.531 111.879L545.628 108.7L534.145 104.76V104.693L524.541 101.425V92.6279L539.226 97.9779L540.367 94.8216L441.606 58.8494L440.464 62.0056L451.5 66.0349V76.4661L428.198 68.4972L427.101 71.6758L439.345 75.8618V181.495L401.425 189.621L402.119 192.912L425.959 187.808V238.129H383.271V297.918H331.272C331.205 297.493 331.137 297.045 331.048 296.642V259.081L341.658 248.47C342.307 247.821 342.307 246.747 341.658 246.098C341.009 245.448 339.935 245.448 339.285 246.098L331.048 254.335V245.023L340.92 235.152C341.569 234.502 341.569 233.428 340.92 232.779C340.27 232.13 339.196 232.13 338.547 232.779L331.048 240.278V221.273C331.048 220.355 330.287 219.594 329.369 219.594C328.451 219.594 327.69 220.355 327.69 221.273V240.009L317.483 229.802C316.834 229.152 315.759 229.152 315.11 229.802C314.461 230.451 314.461 231.525 315.11 232.174L327.69 244.755V255.208L319.878 247.396C319.229 246.747 318.154 246.747 317.505 247.396C316.856 248.045 316.856 249.12 317.505 249.769L327.69 259.976V290.33C325.452 287.8 322.363 286.01 318.826 285.405C317.013 278.623 310.857 273.832 303.738 273.832C298.254 273.832 293.106 276.765 290.308 281.51C289.838 282.316 290.106 283.346 290.89 283.816C291.695 284.286 292.725 284.017 293.195 283.234C295.389 279.518 299.441 277.212 303.738 277.212C309.648 277.212 314.729 281.421 315.804 287.241C315.938 287.98 316.543 288.539 317.304 288.606C322.251 289.054 326.347 292.613 327.69 297.247V297.985H293.352C293.397 297.627 293.441 297.269 293.441 296.933C293.441 291.83 289.905 287.577 285.025 286.569C283.659 282.092 279.518 278.936 274.728 278.936C270.654 278.936 266.983 281.197 265.147 284.778C263.513 285.069 262.013 285.853 260.849 287.017C259.663 288.203 258.879 289.748 258.588 291.404C258.477 291.449 258.387 291.539 258.275 291.583V265.998L266.557 257.715C267.207 257.066 267.207 255.992 266.557 255.343C265.908 254.693 264.834 254.693 264.185 255.343L258.275 261.252V254.895L265.953 247.217C266.602 246.568 266.602 245.493 265.953 244.844C265.304 244.195 264.229 244.195 263.58 244.844L258.275 250.149V235.98C258.275 235.062 257.514 234.301 256.596 234.301C255.678 234.301 254.917 235.062 254.917 235.98V249.925L247.463 242.471C246.814 241.822 245.74 241.822 245.09 242.471C244.441 243.12 244.441 244.195 245.09 244.844L254.917 254.671V261.924L249.344 256.35C248.694 255.701 247.62 255.701 246.971 256.35C246.322 256.999 246.322 258.073 246.971 258.723L254.917 266.669V297.985H216.684V234.189H201.754V203.544H216.684V185.883H204.44V172.877H215.005V169.519H73.892V172.877H89.5389V185.883H72.2131V248.179H27.1303V298.008H0V301.366H1148.78V301.343ZM797.344 253.529C797.344 246.008 801.485 239.181 808.156 235.666C808.649 235.398 808.984 234.928 809.051 234.368C809.119 233.808 808.895 233.271 808.492 232.913C805.447 230.272 803.679 226.444 803.679 222.437C803.679 214.781 809.902 208.558 817.558 208.558C825.213 208.558 831.436 214.781 831.436 222.437C831.436 226.444 829.69 230.272 826.623 232.913C826.198 233.271 825.997 233.831 826.064 234.368C826.131 234.905 826.467 235.398 826.959 235.666C833.63 239.181 837.771 246.031 837.771 253.529C837.771 264.095 829.601 272.78 819.259 273.631V247.105C819.259 246.187 818.498 245.426 817.58 245.426C816.662 245.426 815.901 246.187 815.901 247.105V273.631C805.559 272.78 797.389 264.095 797.389 253.529H797.344ZM439.39 297.985H403.507V256.865H439.39V297.985ZM1023.92 230.943V192.33C1023.92 180.264 1033.73 170.46 1045.81 170.46C1057.9 170.46 1067.68 180.264 1067.68 192.33V230.943C1067.68 242.113 1059.27 251.336 1048.46 252.656V231.66L1057.43 222.683C1058.08 222.034 1058.08 220.96 1057.43 220.31C1056.78 219.661 1055.71 219.661 1055.06 220.31L1048.46 226.914V215.095L1061.62 201.933C1062.27 201.283 1062.27 200.209 1061.62 199.56C1060.97 198.911 1059.89 198.911 1059.25 199.56L1048.46 210.349V200.746C1048.46 199.828 1047.7 199.067 1046.78 199.067C1045.86 199.067 1045.1 199.828 1045.1 200.746V205.626L1039.03 199.56C1038.38 198.911 1037.31 198.911 1036.66 199.56C1036.01 200.209 1036.01 201.283 1036.66 201.933L1045.1 210.372V228.414L1032.34 215.654C1031.69 215.005 1030.62 215.005 1029.97 215.654C1029.32 216.304 1029.32 217.378 1029.97 218.027L1045.1 233.159V252.813C1033.35 252.433 1023.92 242.807 1023.92 230.966V230.943ZM1048.46 256.036C1060.3 254.783 1069.74 245.314 1070.91 233.428C1077.31 237.166 1084.56 239.158 1092.02 239.158C1092.35 239.158 1092.67 239.114 1092.98 239.114V297.985H1048.43V256.036H1048.46ZM993.725 276.295C1003.37 280.212 1009.22 289.793 1009.28 289.927C1009.62 290.509 1010.27 290.822 1010.94 290.733C1011.61 290.643 1012.15 290.173 1012.33 289.524C1012.51 288.942 1016.33 276.339 1030.48 274.884C1027.26 277.727 1023.12 282.383 1021.5 288.629C1021.3 289.367 1021.64 290.128 1022.31 290.509C1022.98 290.889 1023.81 290.755 1024.35 290.218C1024.37 290.196 1026.41 288.181 1030.88 287.107C1028.2 290.061 1025.06 294.314 1025.2 297.874C1025.2 297.918 1025.2 297.941 1025.22 297.985H998.964C1001.58 288.606 997.374 280.861 993.748 276.295H993.725ZM953.746 297.874V259.797H977.676V297.874C977.676 297.874 977.676 297.941 977.676 297.985H953.702C953.702 297.985 953.702 297.918 953.702 297.874H953.746ZM780.779 212.14V297.985H745.568V193.225L780.779 212.14ZM696.882 124.951H735.159V132.652H696.882V124.951ZM688.174 166.072V136.01H742.211V297.985H701.314V169.005C701.314 168.087 700.553 167.326 699.635 167.326H687.592C687.928 167.012 688.174 166.587 688.174 166.095V166.072ZM650.053 170.683H697.956V297.985H650.053V170.683ZM599.665 280.637H624.489V277.28H599.665V270.273H624.489V266.915H599.665V259.909H624.489V256.551H599.665V249.545H624.489V246.187H599.665V239.181H624.489V235.823H599.665V228.817H624.489V225.459H599.665V218.453H624.489V215.095H599.665V205.581H646.695V297.985H599.665V280.637ZM454.88 67.3332L521.206 91.4863V100.351L508.559 96.0528L454.88 77.6973V67.3332ZM442.748 77.2496L507.887 99.3657L530.832 107.223V161.976L442.748 180.869V77.272V77.2496ZM429.362 187.159L580.615 154.723V238.196H565.976V171.176L444.024 196.896V238.196H429.384V187.159H429.362ZM562.618 238.196H447.381V199.627L562.618 175.317V238.196ZM386.674 241.554H580.615V297.985H442.725V253.507H400.127V297.985H386.674V241.554ZM258.387 297.292C258.387 295.859 259.305 294.605 260.693 294.158C261.364 293.934 261.834 293.329 261.857 292.613C261.901 291.382 262.394 290.218 263.244 289.367C264.073 288.539 265.192 288.047 266.401 287.98C267.05 287.935 267.632 287.532 267.878 286.927C269.02 284.107 271.706 282.271 274.75 282.271C278.332 282.271 281.376 284.823 282.025 288.338C282.16 289.076 282.764 289.636 283.525 289.703C287.263 290.061 290.084 293.15 290.084 296.911C290.084 297.269 290.061 297.627 289.994 297.963H258.275V297.605C258.297 297.493 258.342 297.381 258.342 297.269L258.387 297.292ZM109.126 251.515V262.461H75.6156V251.515H109.126ZM109.126 265.819V297.985H75.6156V265.819H109.126ZM112.483 265.819H213.371V297.985H112.483V265.819ZM213.371 262.461H112.483V251.515H213.371V262.461ZM198.441 234.189H172.027V203.544H198.441V234.189ZM89.6061 234.189V203.544H109.126V234.189H89.6061ZM112.483 203.522H138.897V234.167H112.483V203.522ZM142.255 203.522H168.669V234.167H142.255V203.522ZM201.127 185.86H193.986V172.855H201.127V185.86ZM103.417 185.86V172.855H190.651V185.86H103.417ZM92.9414 172.855H100.082V185.86H92.9414V172.855ZM75.6156 189.218H213.371V200.164H86.2484V237.524H213.371V248.157H75.6156V189.218ZM72.2579 251.515V262.461H30.488V251.515H72.2579ZM30.488 265.819H72.2579V297.985H30.488V265.819Z" fill="black"/>
<path d="M338.591 269.221C337.651 269.109 336.823 269.758 336.711 270.676C336.599 271.594 337.248 272.445 338.166 272.557C339.308 272.713 340.472 272.78 341.636 272.78C356.454 272.78 368.497 260.737 368.497 245.919C368.497 240.882 367.087 235.98 364.423 231.704C364.513 230.899 364.558 230.182 364.558 229.488C364.558 220.557 359.342 212.655 351.194 209.118C348.194 199.963 339.532 193.628 329.839 193.628C320.146 193.628 311.193 200.164 308.327 209.611C300.045 213.103 294.538 221.318 294.538 230.339C294.538 232.779 294.941 235.219 295.747 237.569C293.665 240.882 292.568 244.688 292.568 248.627C292.568 260.088 301.903 269.423 313.364 269.423C316.005 269.423 318.602 268.93 321.042 267.945C321.892 267.609 322.318 266.625 321.982 265.774C321.646 264.923 320.661 264.498 319.811 264.834C317.751 265.662 315.602 266.065 313.386 266.065C303.761 266.065 295.949 258.23 295.949 248.627C295.949 245.09 297.001 241.666 299.015 238.756C299.329 238.308 299.396 237.726 299.194 237.211C298.344 234.995 297.896 232.689 297.896 230.361C297.896 222.459 302.888 215.252 310.297 212.476C310.812 212.274 311.193 211.849 311.327 211.334C313.521 202.918 321.131 197.03 329.817 197.03C338.502 197.03 345.844 202.716 348.194 210.887C348.329 211.379 348.709 211.804 349.202 211.983C356.477 214.826 361.2 221.721 361.2 229.533C361.2 230.249 361.155 231.01 361.021 231.951C360.976 232.354 361.066 232.756 361.29 233.092C363.819 236.942 365.162 241.397 365.162 245.986C365.162 258.947 354.619 269.49 341.658 269.49C340.628 269.49 339.621 269.423 338.614 269.288L338.591 269.221Z" fill="black"/>
<path d="M347.299 228.861L349.157 227.003C349.806 226.354 349.806 225.28 349.157 224.631C348.508 223.982 347.433 223.982 346.784 224.631L344.926 226.489C344.277 227.138 344.277 228.212 344.926 228.861C345.262 229.197 345.687 229.354 346.113 229.354C346.538 229.354 346.963 229.197 347.299 228.861Z" fill="black"/>
<path d="M263.938 273.474C262.998 273.34 262.17 274.011 262.058 274.929C261.946 275.847 262.595 276.698 263.513 276.809C264.431 276.921 265.371 276.989 266.311 276.989C278.197 276.989 287.89 267.318 287.89 255.41C287.89 251.403 286.771 247.508 284.667 244.105C284.734 243.546 284.756 243.009 284.756 242.427C284.756 235.286 280.615 228.973 274.123 226.086C271.661 218.788 264.722 213.752 256.977 213.752C249.232 213.752 242.046 218.945 239.696 226.466C233.115 229.309 228.75 235.89 228.75 243.076C228.75 245.001 229.063 246.904 229.667 248.739C228.056 251.38 227.183 254.402 227.183 257.514C227.183 266.759 234.704 274.302 243.971 274.302C246.098 274.302 248.179 273.899 250.172 273.116C251.022 272.78 251.448 271.795 251.112 270.945C250.776 270.072 249.791 269.669 248.941 270.005C247.374 270.631 245.695 270.945 243.994 270.945C236.584 270.945 230.563 264.923 230.563 257.514C230.563 254.783 231.391 252.164 232.935 249.925C233.249 249.478 233.316 248.896 233.115 248.381C232.465 246.657 232.13 244.889 232.13 243.098C232.13 236.987 235.98 231.458 241.688 229.309C242.203 229.108 242.583 228.682 242.718 228.167C244.419 221.676 250.284 217.132 256.977 217.132C263.67 217.132 269.355 221.519 271.146 227.809C271.281 228.302 271.661 228.727 272.154 228.906C277.772 231.1 281.398 236.405 281.398 242.427C281.398 243.053 281.354 243.68 281.264 244.284C281.219 244.687 281.309 245.09 281.533 245.426C283.503 248.403 284.532 251.851 284.532 255.41C284.532 265.46 276.362 273.631 266.311 273.631C265.528 273.631 264.744 273.586 263.961 273.474H263.938Z" fill="black"/>
<path d="M271.012 242.18L272.467 240.725C273.116 240.076 273.116 239.002 272.467 238.353C271.818 237.703 270.743 237.703 270.094 238.353L268.639 239.808C267.99 240.457 267.99 241.531 268.639 242.18C268.975 242.516 269.4 242.673 269.825 242.673C270.251 242.673 270.676 242.516 271.012 242.18Z" fill="black"/>
<path d="M950.389 228.347C950.389 235.465 956.186 241.263 963.305 241.263C970.423 241.263 976.221 235.465 976.221 228.347C976.221 221.228 970.423 215.431 963.305 215.431C956.186 215.431 950.389 221.228 950.389 228.347ZM972.885 228.347C972.885 233.629 968.588 237.905 963.327 237.905C958.067 237.905 953.769 233.607 953.769 228.347C953.769 223.086 958.067 218.788 963.327 218.788C968.588 218.788 972.885 223.086 972.885 228.347Z" fill="black"/>
<path d="M898.814 289.703C899.732 289.703 900.493 288.942 900.493 288.024V262.08C900.493 261.162 899.732 260.401 898.814 260.401H851.806C850.889 260.401 850.128 261.162 850.128 262.08V288.024C850.128 288.942 850.889 289.703 851.806 289.703H898.814ZM853.485 276.72H873.632V286.323H853.485V276.72ZM876.989 286.345V276.742H897.136V286.345H876.989ZM897.136 273.362H876.989V263.759H897.136V273.362ZM873.632 263.759V273.362H853.485V263.759H873.632Z" fill="black"/>
<path d="M120.251 271.684V291.561H206.566V271.684H120.251ZM203.208 288.204H123.608V275.041H203.208V288.204Z" fill="black"/>
<path d="M550.127 192.8L457.499 209.364V227.116H550.127V192.8ZM460.857 212.185L488.636 207.216V223.758H460.857V212.185ZM546.769 223.758H491.994V206.611L518.721 201.843V223.713H522.079V201.239L546.792 196.829V223.758H546.769Z" fill="black"/>
<path d="M565.976 253.507H453.828V290.711H565.976V253.507ZM562.618 274.258H522.057V256.865H562.618V274.258ZM496.65 274.258V256.865H518.699V274.258H496.65ZM518.699 277.615V287.353H496.65V277.615H518.699ZM493.292 256.865V274.258H457.186V256.865H493.292ZM457.186 277.615H493.292V287.353H457.186V277.615ZM522.057 287.375V277.638H562.618V287.375H522.057Z" fill="black"/>
<path d="M453.828 98.5823V165.334L519.93 151.365V117.162L453.828 98.5823ZM516.572 133.189H488.547V111.834L516.572 119.713V133.211V133.189ZM485.211 110.871V133.167H457.186V102.992L485.211 110.871ZM457.186 136.547H485.211V154.701H487.83L457.186 161.17V136.547ZM488.569 154.544V136.547H516.595V148.635L488.569 154.544Z" fill="black"/>
<path d="M722.534 96.5901H719.177V110.536H722.534V96.5901Z" fill="black"/>
<path d="M716.289 145.434H712.932V288.136H716.289V145.434Z" fill="black"/>
<path d="M728.78 145.434H725.422V288.136H728.78V145.434Z" fill="black"/>
<path d="M773.93 283.928H752.015V287.286H773.93V283.928Z" fill="black"/>
<path d="M773.93 275.646H752.015V279.003H773.93V275.646Z" fill="black"/>
<path d="M773.93 267.363H752.015V270.721H773.93V267.363Z" fill="black"/>
<path d="M773.93 259.059H752.015V262.416H773.93V259.059Z" fill="black"/>
<path d="M773.93 250.776H752.015V254.134H773.93V250.776Z" fill="black"/>
<path d="M773.93 242.494H752.015V245.851H773.93V242.494Z" fill="black"/>
<path d="M773.93 234.189H752.015V237.547H773.93V234.189Z" fill="black"/>
<path d="M773.93 225.907H752.015V229.264H773.93V225.907Z" fill="black"/>
<path d="M773.93 217.624H752.015V220.982H773.93V217.624Z" fill="black"/>
<path d="M689.114 288.024C690.032 288.024 690.793 287.263 690.793 286.346V280.145C690.793 279.227 690.032 278.466 689.114 278.466C688.197 278.466 687.435 279.227 687.435 280.145V286.346C687.435 287.263 688.197 288.024 689.114 288.024Z" fill="black"/>
<path d="M678.75 288.024C679.668 288.024 680.429 287.263 680.429 286.346V280.145C680.429 279.227 679.668 278.466 678.75 278.466C677.832 278.466 677.071 279.227 677.071 280.145V286.346C677.071 287.263 677.832 288.024 678.75 288.024Z" fill="black"/>
<path d="M668.385 288.024C669.303 288.024 670.064 287.263 670.064 286.346V280.145C670.064 279.227 669.303 278.466 668.385 278.466C667.468 278.466 666.707 279.227 666.707 280.145V286.346C666.707 287.263 667.468 288.024 668.385 288.024Z" fill="black"/>
<path d="M658.022 288.024C658.939 288.024 659.7 287.263 659.7 286.346V280.145C659.7 279.227 658.939 278.466 658.022 278.466C657.104 278.466 656.343 279.227 656.343 280.145V286.346C656.343 287.263 657.104 288.024 658.022 288.024Z" fill="black"/>
<path d="M689.114 271.437C690.032 271.437 690.793 270.676 690.793 269.758V263.558C690.793 262.64 690.032 261.879 689.114 261.879C688.197 261.879 687.435 262.64 687.435 263.558V269.758C687.435 270.676 688.197 271.437 689.114 271.437Z" fill="black"/>
<path d="M678.75 271.437C679.668 271.437 680.429 270.676 680.429 269.758V263.558C680.429 262.64 679.668 261.879 678.75 261.879C677.832 261.879 677.071 262.64 677.071 263.558V269.758C677.071 270.676 677.832 271.437 678.75 271.437Z" fill="black"/>
<path d="M668.385 271.437C669.303 271.437 670.064 270.676 670.064 269.758V263.558C670.064 262.64 669.303 261.879 668.385 261.879C667.468 261.879 666.707 262.64 666.707 263.558V269.758C666.707 270.676 667.468 271.437 668.385 271.437Z" fill="black"/>
<path d="M658.022 271.437C658.939 271.437 659.7 270.676 659.7 269.758V263.558C659.7 262.64 658.939 261.879 658.022 261.879C657.104 261.879 656.343 262.64 656.343 263.558V269.758C656.343 270.676 657.104 271.437 658.022 271.437Z" fill="black"/>
<path d="M689.114 254.872C690.032 254.872 690.793 254.111 690.793 253.194V246.993C690.793 246.075 690.032 245.314 689.114 245.314C688.197 245.314 687.435 246.075 687.435 246.993V253.194C687.435 254.111 688.197 254.872 689.114 254.872Z" fill="black"/>
<path d="M678.75 254.872C679.668 254.872 680.429 254.111 680.429 253.194V246.993C680.429 246.075 679.668 245.314 678.75 245.314C677.832 245.314 677.071 246.075 677.071 246.993V253.194C677.071 254.111 677.832 254.872 678.75 254.872Z" fill="black"/>
<path d="M668.385 254.872C669.303 254.872 670.064 254.111 670.064 253.194V246.993C670.064 246.075 669.303 245.314 668.385 245.314C667.468 245.314 666.707 246.075 666.707 246.993V253.194C666.707 254.111 667.468 254.872 668.385 254.872Z" fill="black"/>
<path d="M658.022 254.872C658.939 254.872 659.7 254.111 659.7 253.194V246.993C659.7 246.075 658.939 245.314 658.022 245.314C657.104 245.314 656.343 246.075 656.343 246.993V253.194C656.343 254.111 657.104 254.872 658.022 254.872Z" fill="black"/>
<path d="M689.114 238.286C690.032 238.286 690.793 237.525 690.793 236.607V230.406C690.793 229.488 690.032 228.727 689.114 228.727C688.197 228.727 687.435 229.488 687.435 230.406V236.607C687.435 237.525 688.197 238.286 689.114 238.286Z" fill="black"/>
<path d="M678.75 238.286C679.668 238.286 680.429 237.525 680.429 236.607V230.406C680.429 229.488 679.668 228.727 678.75 228.727C677.832 228.727 677.071 229.488 677.071 230.406V236.607C677.071 237.525 677.832 238.286 678.75 238.286Z" fill="black"/>
<path d="M668.385 238.286C669.303 238.286 670.064 237.525 670.064 236.607V230.406C670.064 229.488 669.303 228.727 668.385 228.727C667.468 228.727 666.707 229.488 666.707 230.406V236.607C666.707 237.525 667.468 238.286 668.385 238.286Z" fill="black"/>
<path d="M658.022 238.286C658.939 238.286 659.7 237.525 659.7 236.607V230.406C659.7 229.488 658.939 228.727 658.022 228.727C657.104 228.727 656.343 229.488 656.343 230.406V236.607C656.343 237.525 657.104 238.286 658.022 238.286Z" fill="black"/>
<path d="M689.114 221.698C690.032 221.698 690.793 220.937 690.793 220.019V213.819C690.793 212.901 690.032 212.14 689.114 212.14C688.197 212.14 687.435 212.901 687.435 213.819V220.019C687.435 220.937 688.197 221.698 689.114 221.698Z" fill="black"/>
<path d="M678.75 221.698C679.668 221.698 680.429 220.937 680.429 220.019V213.819C680.429 212.901 679.668 212.14 678.75 212.14C677.832 212.14 677.071 212.901 677.071 213.819V220.019C677.071 220.937 677.832 221.698 678.75 221.698Z" fill="black"/>
<path d="M668.385 221.698C669.303 221.698 670.064 220.937 670.064 220.019V213.819C670.064 212.901 669.303 212.14 668.385 212.14C667.468 212.14 666.707 212.901 666.707 213.819V220.019C666.707 220.937 667.468 221.698 668.385 221.698Z" fill="black"/>
<path d="M658.022 221.698C658.939 221.698 659.7 220.937 659.7 220.019V213.819C659.7 212.901 658.939 212.14 658.022 212.14C657.104 212.14 656.343 212.901 656.343 213.819V220.019C656.343 220.937 657.104 221.698 658.022 221.698Z" fill="black"/>
<path d="M689.114 205.134C690.032 205.134 690.793 204.373 690.793 203.455V197.254C690.793 196.337 690.032 195.575 689.114 195.575C688.197 195.575 687.435 196.337 687.435 197.254V203.455C687.435 204.373 688.197 205.134 689.114 205.134Z" fill="black"/>
<path d="M678.75 205.134C679.668 205.134 680.429 204.373 680.429 203.455V197.254C680.429 196.337 679.668 195.575 678.75 195.575C677.832 195.575 677.071 196.337 677.071 197.254V203.455C677.071 204.373 677.832 205.134 678.75 205.134Z" fill="black"/>
<path d="M668.385 205.134C669.303 205.134 670.064 204.373 670.064 203.455V197.254C670.064 196.337 669.303 195.575 668.385 195.575C667.468 195.575 666.707 196.337 666.707 197.254V203.455C666.707 204.373 667.468 205.134 668.385 205.134Z" fill="black"/>
<path d="M658.022 205.134C658.939 205.134 659.7 204.373 659.7 203.455V197.254C659.7 196.337 658.939 195.575 658.022 195.575C657.104 195.575 656.343 196.337 656.343 197.254V203.455C656.343 204.373 657.104 205.134 658.022 205.134Z" fill="black"/>
<path d="M689.114 188.547C690.032 188.547 690.793 187.785 690.793 186.868V180.667C690.793 179.749 690.032 178.988 689.114 178.988C688.197 178.988 687.435 179.749 687.435 180.667V186.868C687.435 187.785 688.197 188.547 689.114 188.547Z" fill="black"/>
<path d="M678.75 188.547C679.668 188.547 680.429 187.785 680.429 186.868V180.667C680.429 179.749 679.668 178.988 678.75 178.988C677.832 178.988 677.071 179.749 677.071 180.667V186.868C677.071 187.785 677.832 188.547 678.75 188.547Z" fill="black"/>
<path d="M668.385 188.547C669.303 188.547 670.064 187.785 670.064 186.868V180.667C670.064 179.749 669.303 178.988 668.385 178.988C667.468 178.988 666.707 179.749 666.707 180.667V186.868C666.707 187.785 667.468 188.547 668.385 188.547Z" fill="black"/>
<path d="M658.022 188.547C658.939 188.547 659.7 187.785 659.7 186.868V180.667C659.7 179.749 658.939 178.988 658.022 178.988C657.104 178.988 656.343 179.749 656.343 180.667V186.868C656.343 187.785 657.104 188.547 658.022 188.547Z" fill="black"/>
<path d="M639.107 277.28H630.735V280.637H639.107V277.28Z" fill="black"/>
<path d="M639.107 266.916H630.735V270.273H639.107V266.916Z" fill="black"/>
<path d="M639.107 256.551H630.735V259.909H639.107V256.551Z" fill="black"/>
<path d="M639.107 246.187H630.735V249.545H639.107V246.187Z" fill="black"/>
<path d="M639.107 235.823H630.735V239.181H639.107V235.823Z" fill="black"/>
<path d="M639.107 225.459H630.735V228.817H639.107V225.459Z" fill="black"/>
<path d="M639.107 215.095H630.735V218.452H639.107V215.095Z" fill="black"/>
<path d="M731.108 81.3685H742.255C743.173 81.3685 743.934 80.6074 743.934 79.6896C743.934 78.7718 743.173 78.0107 742.255 78.0107H731.108C730.19 78.0107 729.429 78.7718 729.429 79.6896C729.429 80.6074 730.19 81.3685 731.108 81.3685Z" fill="black"/>
<path d="M613.543 79.6896C613.543 80.6074 614.304 81.3685 615.222 81.3685H707.626C708.544 81.3685 709.305 80.6074 709.305 79.6896C709.305 78.7718 708.544 78.0107 707.626 78.0107H615.222C614.304 78.0107 613.543 78.7718 613.543 79.6896Z" fill="black"/>
<path d="M337.091 62.2071H348.239C349.157 62.2071 349.918 61.446 349.918 60.5282C349.918 59.6104 349.157 58.8494 348.239 58.8494H337.091C336.174 58.8494 335.412 59.6104 335.412 60.5282C335.412 61.446 336.174 62.2071 337.091 62.2071Z" fill="black"/>
<path d="M219.527 60.5282C219.527 61.446 220.288 62.2071 221.206 62.2071H313.61C314.528 62.2071 315.289 61.446 315.289 60.5282C315.289 59.6104 314.528 58.8494 313.61 58.8494H221.206C220.288 58.8494 219.527 59.6104 219.527 60.5282Z" fill="black"/>
<path d="M392.74 163.252C392.74 164.17 393.501 164.931 394.419 164.931H402.477C403.395 164.931 404.156 164.17 404.156 163.252C404.156 162.334 403.395 161.573 402.477 161.573H394.419C393.501 161.573 392.74 162.334 392.74 163.252Z" fill="black"/>
<path d="M309.155 163.252C309.155 164.17 309.916 164.931 310.834 164.931H377.496C378.414 164.931 379.175 164.17 379.175 163.252C379.175 162.334 378.414 161.573 377.496 161.573H310.834C309.916 161.573 309.155 162.334 309.155 163.252Z" fill="black"/>
<path d="M139.502 125.825H147.538C148.456 125.825 149.217 125.063 149.217 124.146C149.217 123.228 148.456 122.467 147.538 122.467H139.502C138.584 122.467 137.823 123.228 137.823 124.146C137.823 125.063 138.584 125.825 139.502 125.825Z" fill="black"/>
<path d="M55.917 125.825H122.579C123.497 125.825 124.258 125.063 124.258 124.146C124.258 123.228 123.497 122.467 122.579 122.467H55.917C54.9993 122.467 54.2382 123.228 54.2382 124.146C54.2382 125.063 54.9993 125.825 55.917 125.825Z" fill="black"/>
</g>
</svg>
